<?xml version="1.0" encoding="UTF-8"?>
<svg width="115px" height="110px" viewBox="0 0 115 110" version="1.1" xmlns="http://www.w3.org/2000/svg" xmlns:xlink="http://www.w3.org/1999/xlink">
    <!-- Generator: Sketch 61.2 (89653) - https://sketch.com -->
    <title>Logo</title>
    <desc>Created with Sketch.</desc>
    <g id="Website" stroke="none" stroke-width="1" fill="none" fill-rule="evenodd">
        <g id="Home-–-Mobile-375" transform="translate(-23.000000, 0.000000)" fill="#000000" fill-rule="nonzero">
            <g id="1-Hero" transform="translate(-195.000000, -223.000000)">
                <g id="Logo" transform="translate(218.000000, 207.000000)">
                    <path d="M44.2067302,60 C52.4312381,60 56.4500317,55.2850539 56.4500317,33.4668721 C56.4500317,30.9707242 56.0761905,28.4745763 54.767746,28.4745763 C54.3004444,28.4745763 53.8331429,28.751926 53.8331429,29.3066256 C53.8331429,30.6009245 55.5154286,31.248074 55.5154286,33.3744222 C55.5154286,35.5007704 53.5527619,36.4252696 48.7862857,36.4252696 C41.1225397,36.4252696 35.7953016,35.8705701 24.2062222,35.8705701 C21.4024127,35.8705701 16.9163175,36.6101695 16.2620952,36.6101695 C15.607873,36.6101695 15.2340317,36.3328197 15.3274921,35.8705701 C15.3274921,35.5932203 15.7013333,35.2234206 16.1686349,35.0385208 C31.7765079,29.0292758 58.4126984,36.5177196 58.4126984,15.8089368 C58.4126984,3.88289676 50.8424127,0 33.4587937,0 C11.2152381,0 3.55149206,8.69029276 3.55149206,19.7842835 C3.55149206,26.6255778 7.28990476,30.7858243 15.5144127,30.7858243 C22.0566349,30.7858243 29.44,25.8859784 29.44,16.1787365 C29.44,11.2788906 27.2904127,6.47149461 20.2808889,6.47149461 C15.3274921,6.47149461 14.2059683,7.85824345 11.9629206,7.85824345 C11.495619,7.85824345 11.2152381,7.67334361 11.2152381,7.30354391 C11.2152381,5.45454545 15.7013333,4.06779661 22.1500952,4.06779661 C31.215746,4.06779661 35.4214603,6.74884438 35.4214603,13.7750385 C35.4214603,25.146379 27.664254,30.3235747 15.4209524,33.651772 C3.92533333,36.7950693 0,41.4175655 0,49.2758089 C0,55.4699538 4.2991746,60 12.6171429,60 C20.4678095,60 25.5146667,56.6718028 25.5146667,49.2758089 C25.5146667,39.568567 14.0190476,41.2326656 14.2994286,38.7365177 C14.2994286,38.1818182 14.9536508,37.7195686 16.0751746,37.7195686 C29.6269206,37.7195686 27.383873,60 44.2067302,60 Z M83.8116193,60 C103.887972,60 115,47.0046083 115,24.0552995 C115,9.21658986 107.996621,0 89.2275656,0 C64.2021583,0 58.4126984,14.3778802 58.4126984,30.7834101 C58.4126984,51.5207373 68.6843208,60 83.8116193,60 Z M84.360629,54.5454545 C83.0811452,54.5454545 82.1428571,53.4527242 82.1428571,46.8963424 C82.1428571,25.861284 84.2753301,0 88.9667705,0 C90.502151,0 91.2698413,1.73015632 91.2698413,7.19380786 C91.2698413,32.964031 87.8578846,54.5454545 84.360629,54.5454545 Z" id="20"></path>
                    <path d="M44.2067302,126 C52.4312381,126 56.4500317,121.285054 56.4500317,99.4668721 C56.4500317,96.9707242 56.0761905,94.4745763 54.767746,94.4745763 C54.3004444,94.4745763 53.8331429,94.751926 53.8331429,95.3066256 C53.8331429,96.6009245 55.5154286,97.248074 55.5154286,99.3744222 C55.5154286,101.50077 53.5527619,102.42527 48.7862857,102.42527 C41.1225397,102.42527 35.7953016,101.87057 24.2062222,101.87057 C21.4024127,101.87057 16.9163175,102.610169 16.2620952,102.610169 C15.607873,102.610169 15.2340317,102.33282 15.3274921,101.87057 C15.3274921,101.59322 15.7013333,101.223421 16.1686349,101.038521 C31.7765079,95.0292758 58.4126984,102.51772 58.4126984,81.8089368 C58.4126984,69.8828968 50.8424127,66 33.4587937,66 C11.2152381,66 3.55149206,74.6902928 3.55149206,85.7842835 C3.55149206,92.6255778 7.28990476,96.7858243 15.5144127,96.7858243 C22.0566349,96.7858243 29.44,91.8859784 29.44,82.1787365 C29.44,77.2788906 27.2904127,72.4714946 20.2808889,72.4714946 C15.3274921,72.4714946 14.2059683,73.8582435 11.9629206,73.8582435 C11.495619,73.8582435 11.2152381,73.6733436 11.2152381,73.3035439 C11.2152381,71.4545455 15.7013333,70.0677966 22.1500952,70.0677966 C31.215746,70.0677966 35.4214603,72.7488444 35.4214603,79.7750385 C35.4214603,91.146379 27.664254,96.3235747 15.4209524,99.651772 C3.92533333,102.795069 0,107.417565 0,115.275809 C0,121.469954 4.2991746,126 12.6171429,126 C20.4678095,126 25.5146667,122.671803 25.5146667,115.275809 C25.5146667,105.568567 14.0190476,107.232666 14.2994286,104.736518 C14.2994286,104.181818 14.9536508,103.719569 16.0751746,103.719569 C29.6269206,103.719569 27.383873,126 44.2067302,126 Z M83.8116193,126 C103.887972,126 115,113.004608 115,90.0552995 C115,75.2165899 107.996621,66 89.2275656,66 C64.2021583,66 58.4126984,80.3778802 58.4126984,96.7834101 C58.4126984,117.520737 68.6843208,126 83.8116193,126 Z M84.360629,120.545455 C83.0811452,120.545455 82.1428571,119.452724 82.1428571,112.896342 C82.1428571,91.861284 84.2753301,66 88.9667705,66 C90.502151,66 91.2698413,67.7301563 91.2698413,73.1938079 C91.2698413,98.964031 87.8578846,120.545455 84.360629,120.545455 Z" id="20"></path>
                </g>
            </g>
        </g>
    </g>
</svg>