<?xml version="1.0" encoding="UTF-8"?>
<svg width="64px" height="70px" viewBox="0 0 64 70" version="1.1" xmlns="http://www.w3.org/2000/svg" xmlns:xlink="http://www.w3.org/1999/xlink">
    <!-- Generator: Sketch 61.2 (89653) - https://sketch.com -->
    <title>Group 2</title>
    <desc>Created with Sketch.</desc>
    <g id="Symbols" stroke="none" stroke-width="1" fill="none" fill-rule="evenodd">
        <g id="design/footer/mobile" transform="translate(-27.000000, -56.000000)" fill="#000000" fill-rule="nonzero">
            <g id="Group-2" transform="translate(28.000000, 56.000000)">
                <path d="M24.1776,33.28 C28.6832,33.28 30.8848,30.6867797 30.8848,18.6867797 C30.8848,17.3138983 30.68,15.9410169 29.9632,15.9410169 C29.7072,15.9410169 29.4512,16.0935593 29.4512,16.3986441 C29.4512,17.1105085 30.3728,17.4664407 30.3728,18.6359322 C30.3728,19.8054237 29.2976,20.3138983 26.6864,20.3138983 C22.488,20.3138983 19.5696,20.0088136 13.2208,20.0088136 C11.6848,20.0088136 9.2272,20.4155932 8.8688,20.4155932 C8.5104,20.4155932 8.3056,20.2630508 8.3568,20.0088136 C8.3568,19.8562712 8.5616,19.6528814 8.8176,19.5511864 C17.368,16.2461017 31.96,20.3647458 31.96,8.97491525 C31.96,2.41559322 27.8128,0.28 18.2896,0.28 C6.104,0.28 1.9056,5.05966102 1.9056,11.1613559 C1.9056,14.9240678 3.9536,17.2122034 8.4592,17.2122034 C12.0432,17.2122034 16.088,14.5172881 16.088,9.17830508 C16.088,6.48338983 14.9104,3.83932203 11.0704,3.83932203 C8.3568,3.83932203 7.7424,4.6020339 6.5136,4.6020339 C6.2576,4.6020339 6.104,4.50033898 6.104,4.29694915 C6.104,3.28 8.5616,2.51728814 12.0944,2.51728814 C17.0608,2.51728814 19.3648,3.99186441 19.3648,7.85627119 C19.3648,14.1105085 15.1152,16.9579661 8.408,18.7884746 C2.1104,20.5172881 -0.04,23.059661 -0.04,27.3816949 C-0.04,30.7884746 2.3152,33.28 6.872,33.28 C11.1728,33.28 13.9376,31.4494915 13.9376,27.3816949 C13.9376,22.0427119 7.64,22.9579661 7.7936,21.5850847 C7.7936,21.28 8.152,21.0257627 8.7664,21.0257627 C16.1904,21.0257627 14.9616,33.28 24.1776,33.28 Z M45.8741914,33.28 C56.8725413,33.28 62.96,26.1325346 62.96,13.5104147 C62.96,5.34912442 59.1233663,0.28 48.8411881,0.28 C35.1316172,0.28 31.96,8.1878341 31.96,17.2108756 C31.96,28.6164055 37.5870627,33.28 45.8741914,33.28 Z M46.1749533,30.28 C45.4740187,30.28 44.96,29.6789983 44.96,26.0729883 C44.96,14.5037062 46.1282243,0.28 48.6983178,0.28 C49.5394393,0.28 49.96,1.23158598 49.96,4.23659432 C49.96,18.410217 48.0908411,30.28 46.1749533,30.28 Z" id="20"></path>
                <path d="M24.1776,69.28 C28.6832,69.28 30.8848,66.6867797 30.8848,54.6867797 C30.8848,53.3138983 30.68,51.9410169 29.9632,51.9410169 C29.7072,51.9410169 29.4512,52.0935593 29.4512,52.3986441 C29.4512,53.1105085 30.3728,53.4664407 30.3728,54.6359322 C30.3728,55.8054237 29.2976,56.3138983 26.6864,56.3138983 C22.488,56.3138983 19.5696,56.0088136 13.2208,56.0088136 C11.6848,56.0088136 9.2272,56.4155932 8.8688,56.4155932 C8.5104,56.4155932 8.3056,56.2630508 8.3568,56.0088136 C8.3568,55.8562712 8.5616,55.6528814 8.8176,55.5511864 C17.368,52.2461017 31.96,56.3647458 31.96,44.9749153 C31.96,38.4155932 27.8128,36.28 18.2896,36.28 C6.104,36.28 1.9056,41.059661 1.9056,47.1613559 C1.9056,50.9240678 3.9536,53.2122034 8.4592,53.2122034 C12.0432,53.2122034 16.088,50.5172881 16.088,45.1783051 C16.088,42.4833898 14.9104,39.839322 11.0704,39.839322 C8.3568,39.839322 7.7424,40.6020339 6.5136,40.6020339 C6.2576,40.6020339 6.104,40.500339 6.104,40.2969492 C6.104,39.28 8.5616,38.5172881 12.0944,38.5172881 C17.0608,38.5172881 19.3648,39.9918644 19.3648,43.8562712 C19.3648,50.1105085 15.1152,52.9579661 8.408,54.7884746 C2.1104,56.5172881 -0.04,59.059661 -0.04,63.3816949 C-0.04,66.7884746 2.3152,69.28 6.872,69.28 C11.1728,69.28 13.9376,67.4494915 13.9376,63.3816949 C13.9376,58.0427119 7.64,58.9579661 7.7936,57.5850847 C7.7936,57.28 8.152,57.0257627 8.7664,57.0257627 C16.1904,57.0257627 14.9616,69.28 24.1776,69.28 Z M45.8741914,69.28 C56.8725413,69.28 62.96,62.1325346 62.96,49.5104147 C62.96,41.3491244 59.1233663,36.28 48.8411881,36.28 C35.1316172,36.28 31.96,44.1878341 31.96,53.2108756 C31.96,64.6164055 37.5870627,69.28 45.8741914,69.28 Z M46.1749533,66.28 C45.4740187,66.28 44.96,65.6789983 44.96,62.0729883 C44.96,50.5037062 46.1282243,36.28 48.6983178,36.28 C49.5394393,36.28 49.96,37.231586 49.96,40.2365943 C49.96,54.410217 48.0908411,66.28 46.1749533,66.28 Z" id="20"></path>
            </g>
        </g>
    </g>
</svg>