<?xml version="1.0" encoding="UTF-8"?>
<svg width="343px" height="324px" viewBox="0 0 343 324" version="1.1" xmlns="http://www.w3.org/2000/svg" xmlns:xlink="http://www.w3.org/1999/xlink">
    <!-- Generator: Sketch 61.2 (89653) - https://sketch.com -->
    <title>Logo</title>
    <desc>Created with Sketch.</desc>
    <g id="Website" stroke="none" stroke-width="1" fill="none" fill-rule="evenodd">
        <g id="Home-–-Desktop-1440" transform="translate(-64.000000, 0.000000)" fill="#000000" fill-rule="nonzero">
            <g id="1-Hero" transform="translate(-45.000000, -436.000000)">
                <g id="Logo" transform="translate(109.000000, 385.000000)">
                    <path d="M131.620734,179.2 C156.108312,179.2 168.073834,165.118028 168.073834,99.9543914 C168.073834,92.4992296 166.960762,85.0440678 163.065011,85.0440678 C161.673671,85.0440678 160.282331,85.8724191 160.282331,87.5291217 C160.282331,91.3947612 165.291154,93.3275809 165.291154,99.6782743 C165.291154,106.028968 159.447528,108.790139 145.255863,108.790139 C122.437892,108.790139 106.57662,107.133436 72.0713956,107.133436 C63.7233575,107.133436 50.3664965,109.342373 48.418621,109.342373 C46.4707454,109.342373 45.3576737,108.514022 45.6359416,107.133436 C45.6359416,106.305085 46.7490133,105.200616 48.140353,104.648382 C94.6110984,86.7007704 173.91746,109.066256 173.91746,47.2160247 C173.91746,11.5969183 151.377757,0 99.6199213,0 C33.3921524,0 10.5741816,25.9550077 10.5741816,59.0890601 C10.5741816,79.5217257 21.704899,91.9469954 46.1924775,91.9469954 C65.671233,91.9469954 87.6544,77.3127889 87.6544,48.3204931 C87.6544,33.6862866 81.2542375,19.3281972 60.3841422,19.3281972 C45.6359416,19.3281972 42.2967263,23.4699538 35.6182959,23.4699538 C34.2269562,23.4699538 33.3921524,22.9177196 33.3921524,21.8132512 C33.3921524,16.2909091 46.7490133,12.1491525 65.949501,12.1491525 C92.9414908,12.1491525 105.463548,20.1565485 105.463548,41.1414484 C105.463548,75.1038521 82.3673092,90.5664099 45.9142095,100.506626 C11.6872533,109.894607 0,123.700462 0,147.170416 C0,165.670262 12.8003251,179.2 37.5661714,179.2 C60.9406781,179.2 75.9671467,169.259784 75.9671467,147.170416 C75.9671467,118.17812 41.7401905,123.148228 42.5749943,115.693066 C42.5749943,114.036364 44.5228698,112.655778 47.8620851,112.655778 C88.2109359,112.655778 81.5325054,179.2 131.620734,179.2 Z M249.539986,179.2 C309.315145,179.2 342.4,140.387097 342.4,71.8451613 C342.4,27.5268817 321.548201,0 265.665378,0 C191.154948,0 173.91746,42.9419355 173.91746,91.9397849 C173.91746,153.875269 204.5001,179.2 249.539986,179.2 Z M251.174603,162.909091 C247.365079,162.909091 244.571429,159.64547 244.571429,140.063743 C244.571429,77.2390348 250.920635,0 264.888889,0 C269.460317,0 271.746032,5.16740021 271.746032,21.4855061 C271.746032,98.4525725 261.587302,162.909091 251.174603,162.909091 Z" id="20"></path>
                    <path d="M131.620734,374.4 C156.108312,374.4 168.073834,360.318028 168.073834,295.154391 C168.073834,287.69923 166.960762,280.244068 163.065011,280.244068 C161.673671,280.244068 160.282331,281.072419 160.282331,282.729122 C160.282331,286.594761 165.291154,288.527581 165.291154,294.878274 C165.291154,301.228968 159.447528,303.990139 145.255863,303.990139 C122.437892,303.990139 106.57662,302.333436 72.0713956,302.333436 C63.7233575,302.333436 50.3664965,304.542373 48.418621,304.542373 C46.4707454,304.542373 45.3576737,303.714022 45.6359416,302.333436 C45.6359416,301.505085 46.7490133,300.400616 48.140353,299.848382 C94.6110984,281.90077 173.91746,304.266256 173.91746,242.416025 C173.91746,206.796918 151.377757,195.2 99.6199213,195.2 C33.3921524,195.2 10.5741816,221.155008 10.5741816,254.28906 C10.5741816,274.721726 21.704899,287.146995 46.1924775,287.146995 C65.671233,287.146995 87.6544,272.512789 87.6544,243.520493 C87.6544,228.886287 81.2542375,214.528197 60.3841422,214.528197 C45.6359416,214.528197 42.2967263,218.669954 35.6182959,218.669954 C34.2269562,218.669954 33.3921524,218.11772 33.3921524,217.013251 C33.3921524,211.490909 46.7490133,207.349153 65.949501,207.349153 C92.9414908,207.349153 105.463548,215.356549 105.463548,236.341448 C105.463548,270.303852 82.3673092,285.76641 45.9142095,295.706626 C11.6872533,305.094607 0,318.900462 0,342.370416 C0,360.870262 12.8003251,374.4 37.5661714,374.4 C60.9406781,374.4 75.9671467,364.459784 75.9671467,342.370416 C75.9671467,313.37812 41.7401905,318.348228 42.5749943,310.893066 C42.5749943,309.236364 44.5228698,307.855778 47.8620851,307.855778 C88.2109359,307.855778 81.5325054,374.4 131.620734,374.4 Z M249.539986,374.4 C309.315145,374.4 342.4,335.587097 342.4,267.045161 C342.4,222.726882 321.548201,195.2 265.665378,195.2 C191.154948,195.2 173.91746,238.141935 173.91746,287.139785 C173.91746,349.075269 204.5001,374.4 249.539986,374.4 Z M251.174603,358.109091 C247.365079,358.109091 244.571429,354.84547 244.571429,335.263743 C244.571429,272.439035 250.920635,195.2 264.888889,195.2 C269.460317,195.2 271.746032,200.3674 271.746032,216.685506 C271.746032,293.652572 261.587302,358.109091 251.174603,358.109091 Z" id="20"></path>
                </g>
            </g>
        </g>
    </g>
</svg>