<?xml version="1.0" encoding="UTF-8"?>
<svg width="394px" height="98px" viewBox="0 0 394 98" version="1.1" xmlns="http://www.w3.org/2000/svg" xmlns:xlink="http://www.w3.org/1999/xlink">
    <!-- Generator: Sketch 61.2 (89653) - https://sketch.com -->
    <title>Artboard</title>
    <desc>Created with Sketch.</desc>
    <g id="Artboard" stroke="none" stroke-width="1" fill="none" fill-rule="evenodd">
        <g id="Group-2" fill="#000000" fill-rule="nonzero">
            <path d="M34.5965714,47 C41.0331429,47 44.1782857,43.3066256 44.1782857,26.2157165 C44.1782857,24.2604006 43.8857143,22.3050847 42.8617143,22.3050847 C42.496,22.3050847 42.1302857,22.5223421 42.1302857,22.9568567 C42.1302857,23.9707242 43.4468571,24.4776579 43.4468571,26.1432974 C43.4468571,27.8089368 41.9108571,28.5331279 38.1805714,28.5331279 C32.1828571,28.5331279 28.0137143,28.0986133 18.944,28.0986133 C16.7497143,28.0986133 13.2388571,28.6779661 12.7268571,28.6779661 C12.2148571,28.6779661 11.9222857,28.4607088 11.9954286,28.0986133 C11.9954286,27.8813559 12.288,27.5916795 12.6537143,27.4468413 C24.8685714,22.7395994 45.7142857,28.605547 45.7142857,12.3836672 C45.7142857,3.04160247 39.7897143,-7.10542736e-14 26.1851429,-7.10542736e-14 C8.77714286,-7.10542736e-14 2.77942857,6.80739599 2.77942857,15.4976888 C2.77942857,20.8567026 5.70514286,24.1155624 12.1417143,24.1155624 C17.2617143,24.1155624 23.04,20.2773498 23.04,12.6733436 C23.04,8.83513097 21.3577143,5.06933744 15.872,5.06933744 C11.9954286,5.06933744 11.1177143,6.15562404 9.36228571,6.15562404 C8.99657143,6.15562404 8.77714286,6.01078582 8.77714286,5.7211094 C8.77714286,4.27272727 12.288,3.18644068 17.3348571,3.18644068 C24.4297143,3.18644068 27.7211429,5.28659476 27.7211429,10.7904468 C27.7211429,19.6979969 21.6502857,23.7534669 12.0685714,26.3605547 C3.072,28.8228043 0,32.4437596 0,38.5993837 C0,43.4514638 3.36457143,47 9.87428571,47 C16.0182857,47 19.968,44.3929122 19.968,38.5993837 C19.968,30.9953775 10.9714286,32.2989214 11.1908571,30.3436055 C11.1908571,29.9090909 11.7028571,29.5469954 12.5805714,29.5469954 C23.1862857,29.5469954 21.4308571,47 34.5965714,47 Z M65.591702,47 C81.3036304,47 90,36.8202765 90,18.843318 C90,7.21966206 84.5190948,-7.10542736e-14 69.8302687,-7.10542736e-14 C50.2451674,-7.10542736e-14 45.7142857,11.2626728 45.7142857,24.1136713 C45.7142857,40.3579109 53.7529467,47 65.591702,47 Z M66.0213618,42.7272727 C65.0200267,42.7272727 64.2857143,41.8713007 64.2857143,36.7354682 C64.2857143,20.2580058 65.9546061,-7.10542736e-14 69.6261682,-7.10542736e-14 C70.8277704,-7.10542736e-14 71.4285714,1.35528912 71.4285714,5.63514949 C71.4285714,25.8218243 68.7583445,42.7272727 66.0213618,42.7272727 Z" id="20"></path>
            <path d="M34.5965714,98 C41.0331429,98 44.1782857,94.3066256 44.1782857,77.2157165 C44.1782857,75.2604006 43.8857143,73.3050847 42.8617143,73.3050847 C42.496,73.3050847 42.1302857,73.5223421 42.1302857,73.9568567 C42.1302857,74.9707242 43.4468571,75.4776579 43.4468571,77.1432974 C43.4468571,78.8089368 41.9108571,79.5331279 38.1805714,79.5331279 C32.1828571,79.5331279 28.0137143,79.0986133 18.944,79.0986133 C16.7497143,79.0986133 13.2388571,79.6779661 12.7268571,79.6779661 C12.2148571,79.6779661 11.9222857,79.4607088 11.9954286,79.0986133 C11.9954286,78.8813559 12.288,78.5916795 12.6537143,78.4468413 C24.8685714,73.7395994 45.7142857,79.605547 45.7142857,63.3836672 C45.7142857,54.0416025 39.7897143,51 26.1851429,51 C8.77714286,51 2.77942857,57.807396 2.77942857,66.4976888 C2.77942857,71.8567026 5.70514286,75.1155624 12.1417143,75.1155624 C17.2617143,75.1155624 23.04,71.2773498 23.04,63.6733436 C23.04,59.835131 21.3577143,56.0693374 15.872,56.0693374 C11.9954286,56.0693374 11.1177143,57.155624 9.36228571,57.155624 C8.99657143,57.155624 8.77714286,57.0107858 8.77714286,56.7211094 C8.77714286,55.2727273 12.288,54.1864407 17.3348571,54.1864407 C24.4297143,54.1864407 27.7211429,56.2865948 27.7211429,61.7904468 C27.7211429,70.6979969 21.6502857,74.7534669 12.0685714,77.3605547 C3.072,79.8228043 0,83.4437596 0,89.5993837 C0,94.4514638 3.36457143,98 9.87428571,98 C16.0182857,98 19.968,95.3929122 19.968,89.5993837 C19.968,81.9953775 10.9714286,83.2989214 11.1908571,81.3436055 C11.1908571,80.9090909 11.7028571,80.5469954 12.5805714,80.5469954 C23.1862857,80.5469954 21.4308571,98 34.5965714,98 Z M65.591702,98 C81.3036304,98 90,87.8202765 90,69.843318 C90,58.2196621 84.5190948,51 69.8302687,51 C50.2451674,51 45.7142857,62.2626728 45.7142857,75.1136713 C45.7142857,91.3579109 53.7529467,98 65.591702,98 Z M66.0213618,93.7272727 C65.0200267,93.7272727 64.2857143,92.8713007 64.2857143,87.7354682 C64.2857143,71.2580058 65.9546061,51 69.6261682,51 C70.8277704,51 71.4285714,52.3552891 71.4285714,56.6351495 C71.4285714,76.8218243 68.7583445,93.7272727 66.0213618,93.7272727 Z" id="20"></path>
        </g>
        <text id="SENIOR-SHOW" font-family="AkzidenzGroteskPro-LightEx, Akzidenz-Grotesk Pro" font-size="32" font-style="expanded" font-weight="300" fill="#000000">
            <tspan x="101" y="97">SENIOR SHOW</tspan>
        </text>
        <text id="GRAPHIC-DESIGN" font-family="AkzidenzGroteskPro-LightEx, Akzidenz-Grotesk Pro" font-size="16" font-style="expanded" font-weight="300" letter-spacing="4.26666679" fill="#000000">
            <tspan x="104" y="67">GRAPHIC DESIGN</tspan>
        </text>
    </g>
</svg>