<?xml version="1.0" encoding="UTF-8"?>
<svg width="737px" height="693px" viewBox="0 0 737 693" version="1.1" xmlns="http://www.w3.org/2000/svg" xmlns:xlink="http://www.w3.org/1999/xlink">
    <!-- Generator: Sketch 61.2 (89653) - https://sketch.com -->
    <title>2020 Pattern</title>
    <desc>Created with Sketch.</desc>
    <defs>
        <rect id="path-1" x="0" y="0" width="737" height="693"></rect>
    </defs>
    <g id="Website" stroke="none" stroke-width="1" fill="none" fill-rule="evenodd">
        <g id="Event-info-–-Desktop-1440" transform="translate(0.000000, -102.000000)">
            <g id="1-About-info" transform="translate(0.000000, 102.000000)">
                <g id="2020-Pattern">
                    <mask id="mask-2" fill="white">
                        <use xlink:href="#path-1"></use>
                    </mask>
                    <use id="Mask" fill="#000000" xlink:href="#path-1"></use>
                    <g id="Group-2" mask="url(#mask-2)" fill="#171717" fill-rule="nonzero">
                        <g transform="translate(-23.000000, -53.000000)" id="20">
                            <path d="M75.68,105 C89.76,105 96.64,96.7488444 96.64,58.5670262 C96.64,54.1987673 96,49.8305085 93.76,49.8305085 C92.96,49.8305085 92.16,50.3158706 92.16,51.2865948 C92.16,53.5516179 95.04,54.6841294 95.04,58.4052388 C95.04,62.1263482 91.68,63.7442219 83.52,63.7442219 C70.4,63.7442219 61.28,62.7734977 41.44,62.7734977 C36.64,62.7734977 28.96,64.0677966 27.84,64.0677966 C26.72,64.0677966 26.08,63.5824345 26.24,62.7734977 C26.24,62.2881356 26.88,61.6409861 27.68,61.3174114 C54.4,50.8012327 100,63.9060092 100,27.6656394 C100,6.79506934 87.04,0 57.28,0 C19.2,0 6.08,15.2080123 6.08,34.6224961 C6.08,46.5947612 12.48,53.8751926 26.56,53.8751926 C37.76,53.8751926 50.4,45.3004622 50.4,28.3127889 C50.4,19.7380586 46.72,11.3251156 34.72,11.3251156 C26.24,11.3251156 24.32,13.751926 20.48,13.751926 C19.68,13.751926 19.2,13.4283513 19.2,12.7812018 C19.2,9.54545455 26.88,7.11864407 37.92,7.11864407 C53.44,7.11864407 60.64,11.8104777 60.64,24.1063174 C60.64,44.0061633 47.36,53.0662558 26.4,58.8906009 C6.72,64.3913713 0,72.4807396 0,86.2326656 C0,97.0724191 7.36,105 21.6,105 C35.04,105 43.68,99.1756549 43.68,86.2326656 C43.68,69.2449923 24,72.1571649 24.48,67.788906 C24.48,66.8181818 25.6,66.009245 27.52,66.009245 C50.72,66.009245 46.88,105 75.68,105 Z M143.089109,105 C177.148515,105 196,82.2580645 196,42.0967742 C196,16.1290323 184.118812,0 152.277228,0 C109.821782,0 100,25.1612903 100,53.8709677 C100,90.1612903 117.425743,105 143.089109,105 Z M143.88785,95.9134615 C141.64486,95.9134615 140,93.9919899 140,82.4631598 C140,45.4748298 143.738318,0 151.962617,0 C154.654206,0 156,3.04233017 156,12.6496886 C156,57.9643958 150.018692,95.9134615 143.88785,95.9134615 Z"></path>
                            <path d="M75.68,216 C89.76,216 96.64,207.748844 96.64,169.567026 C96.64,165.198767 96,160.830508 93.76,160.830508 C92.96,160.830508 92.16,161.315871 92.16,162.286595 C92.16,164.551618 95.04,165.684129 95.04,169.405239 C95.04,173.126348 91.68,174.744222 83.52,174.744222 C70.4,174.744222 61.28,173.773498 41.44,173.773498 C36.64,173.773498 28.96,175.067797 27.84,175.067797 C26.72,175.067797 26.08,174.582435 26.24,173.773498 C26.24,173.288136 26.88,172.640986 27.68,172.317411 C54.4,161.801233 100,174.906009 100,138.665639 C100,117.795069 87.04,111 57.28,111 C19.2,111 6.08,126.208012 6.08,145.622496 C6.08,157.594761 12.48,164.875193 26.56,164.875193 C37.76,164.875193 50.4,156.300462 50.4,139.312789 C50.4,130.738059 46.72,122.325116 34.72,122.325116 C26.24,122.325116 24.32,124.751926 20.48,124.751926 C19.68,124.751926 19.2,124.428351 19.2,123.781202 C19.2,120.545455 26.88,118.118644 37.92,118.118644 C53.44,118.118644 60.64,122.810478 60.64,135.106317 C60.64,155.006163 47.36,164.066256 26.4,169.890601 C6.72,175.391371 0,183.48074 0,197.232666 C0,208.072419 7.36,216 21.6,216 C35.04,216 43.68,210.175655 43.68,197.232666 C43.68,180.244992 24,183.157165 24.48,178.788906 C24.48,177.818182 25.6,177.009245 27.52,177.009245 C50.72,177.009245 46.88,216 75.68,216 Z M143.089109,216 C177.148515,216 196,193.258065 196,153.096774 C196,127.129032 184.118812,111 152.277228,111 C109.821782,111 100,136.16129 100,164.870968 C100,201.16129 117.425743,216 143.089109,216 Z M143.88785,206 C141.64486,206 140,204.096828 140,192.677796 C140,156.041736 143.738318,111 151.962617,111 C154.654206,111 156,114.013356 156,123.529215 C156,168.412354 150.018692,206 143.88785,206 Z"></path>
                            <path d="M75.68,549 C89.76,549 96.64,540.748844 96.64,502.567026 C96.64,498.198767 96,493.830508 93.76,493.830508 C92.96,493.830508 92.16,494.315871 92.16,495.286595 C92.16,497.551618 95.04,498.684129 95.04,502.405239 C95.04,506.126348 91.68,507.744222 83.52,507.744222 C70.4,507.744222 61.28,506.773498 41.44,506.773498 C36.64,506.773498 28.96,508.067797 27.84,508.067797 C26.72,508.067797 26.08,507.582435 26.24,506.773498 C26.24,506.288136 26.88,505.640986 27.68,505.317411 C54.4,494.801233 100,507.906009 100,471.665639 C100,450.795069 87.04,444 57.28,444 C19.2,444 6.08,459.208012 6.08,478.622496 C6.08,490.594761 12.48,497.875193 26.56,497.875193 C37.76,497.875193 50.4,489.300462 50.4,472.312789 C50.4,463.738059 46.72,455.325116 34.72,455.325116 C26.24,455.325116 24.32,457.751926 20.48,457.751926 C19.68,457.751926 19.2,457.428351 19.2,456.781202 C19.2,453.545455 26.88,451.118644 37.92,451.118644 C53.44,451.118644 60.64,455.810478 60.64,468.106317 C60.64,488.006163 47.36,497.066256 26.4,502.890601 C6.72,508.391371 0,516.48074 0,530.232666 C0,541.072419 7.36,549 21.6,549 C35.04,549 43.68,543.175655 43.68,530.232666 C43.68,513.244992 24,516.157165 24.48,511.788906 C24.48,510.818182 25.6,510.009245 27.52,510.009245 C50.72,510.009245 46.88,549 75.68,549 Z M143.089109,549 C177.148515,549 196,526.258065 196,486.096774 C196,460.129032 184.118812,444 152.277228,444 C109.821782,444 100,469.16129 100,497.870968 C100,534.16129 117.425743,549 143.089109,549 Z M143.88785,539.913462 C141.64486,539.913462 140,537.99199 140,526.46316 C140,489.47483 143.738318,444 151.962617,444 C154.654206,444 156,447.04233 156,456.649689 C156,501.964396 150.018692,539.913462 143.88785,539.913462 Z"></path>
                            <path d="M75.68,661 C89.76,661 96.64,652.748844 96.64,614.567026 C96.64,610.198767 96,605.830508 93.76,605.830508 C92.96,605.830508 92.16,606.315871 92.16,607.286595 C92.16,609.551618 95.04,610.684129 95.04,614.405239 C95.04,618.126348 91.68,619.744222 83.52,619.744222 C70.4,619.744222 61.28,618.773498 41.44,618.773498 C36.64,618.773498 28.96,620.067797 27.84,620.067797 C26.72,620.067797 26.08,619.582435 26.24,618.773498 C26.24,618.288136 26.88,617.640986 27.68,617.317411 C54.4,606.801233 100,619.906009 100,583.665639 C100,562.795069 87.04,556 57.28,556 C19.2,556 6.08,571.208012 6.08,590.622496 C6.08,602.594761 12.48,609.875193 26.56,609.875193 C37.76,609.875193 50.4,601.300462 50.4,584.312789 C50.4,575.738059 46.72,567.325116 34.72,567.325116 C26.24,567.325116 24.32,569.751926 20.48,569.751926 C19.68,569.751926 19.2,569.428351 19.2,568.781202 C19.2,565.545455 26.88,563.118644 37.92,563.118644 C53.44,563.118644 60.64,567.810478 60.64,580.106317 C60.64,600.006163 47.36,609.066256 26.4,614.890601 C6.72,620.391371 0,628.48074 0,642.232666 C0,653.072419 7.36,661 21.6,661 C35.04,661 43.68,655.175655 43.68,642.232666 C43.68,625.244992 24,628.157165 24.48,623.788906 C24.48,622.818182 25.6,622.009245 27.52,622.009245 C50.72,622.009245 46.88,661 75.68,661 Z M143.089109,661 C177.148515,661 196,638.258065 196,598.096774 C196,572.129032 184.118812,556 152.277228,556 C109.821782,556 100,581.16129 100,609.870968 C100,646.16129 117.425743,661 143.089109,661 Z M143.88785,651 C141.64486,651 140,649.096828 140,637.677796 C140,601.041736 143.738318,556 151.962617,556 C154.654206,556 156,559.013356 156,568.529215 C156,613.412354 150.018692,651 143.88785,651 Z"></path>
                            <path d="M75.68,328 C89.76,328 96.64,319.748844 96.64,281.567026 C96.64,277.198767 96,272.830508 93.76,272.830508 C92.96,272.830508 92.16,273.315871 92.16,274.286595 C92.16,276.551618 95.04,277.684129 95.04,281.405239 C95.04,285.126348 91.68,286.744222 83.52,286.744222 C70.4,286.744222 61.28,285.773498 41.44,285.773498 C36.64,285.773498 28.96,287.067797 27.84,287.067797 C26.72,287.067797 26.08,286.582435 26.24,285.773498 C26.24,285.288136 26.88,284.640986 27.68,284.317411 C54.4,273.801233 100,286.906009 100,250.665639 C100,229.795069 87.04,223 57.28,223 C19.2,223 6.08,238.208012 6.08,257.622496 C6.08,269.594761 12.48,276.875193 26.56,276.875193 C37.76,276.875193 50.4,268.300462 50.4,251.312789 C50.4,242.738059 46.72,234.325116 34.72,234.325116 C26.24,234.325116 24.32,236.751926 20.48,236.751926 C19.68,236.751926 19.2,236.428351 19.2,235.781202 C19.2,232.545455 26.88,230.118644 37.92,230.118644 C53.44,230.118644 60.64,234.810478 60.64,247.106317 C60.64,267.006163 47.36,276.066256 26.4,281.890601 C6.72,287.391371 0,295.48074 0,309.232666 C0,320.072419 7.36,328 21.6,328 C35.04,328 43.68,322.175655 43.68,309.232666 C43.68,292.244992 24,295.157165 24.48,290.788906 C24.48,289.818182 25.6,289.009245 27.52,289.009245 C50.72,289.009245 46.88,328 75.68,328 Z M143.089109,328 C177.148515,328 196,305.258065 196,265.096774 C196,239.129032 184.118812,223 152.277228,223 C109.821782,223 100,248.16129 100,276.870968 C100,313.16129 117.425743,328 143.089109,328 Z M143.88785,318.913462 C141.64486,318.913462 140,316.99199 140,305.46316 C140,268.47483 143.738318,223 151.962617,223 C154.654206,223 156,226.04233 156,235.649689 C156,280.964396 150.018692,318.913462 143.88785,318.913462 Z"></path>
                            <path d="M75.68,439 C89.76,439 96.64,430.748844 96.64,392.567026 C96.64,388.198767 96,383.830508 93.76,383.830508 C92.96,383.830508 92.16,384.315871 92.16,385.286595 C92.16,387.551618 95.04,388.684129 95.04,392.405239 C95.04,396.126348 91.68,397.744222 83.52,397.744222 C70.4,397.744222 61.28,396.773498 41.44,396.773498 C36.64,396.773498 28.96,398.067797 27.84,398.067797 C26.72,398.067797 26.08,397.582435 26.24,396.773498 C26.24,396.288136 26.88,395.640986 27.68,395.317411 C54.4,384.801233 100,397.906009 100,361.665639 C100,340.795069 87.04,334 57.28,334 C19.2,334 6.08,349.208012 6.08,368.622496 C6.08,380.594761 12.48,387.875193 26.56,387.875193 C37.76,387.875193 50.4,379.300462 50.4,362.312789 C50.4,353.738059 46.72,345.325116 34.72,345.325116 C26.24,345.325116 24.32,347.751926 20.48,347.751926 C19.68,347.751926 19.2,347.428351 19.2,346.781202 C19.2,343.545455 26.88,341.118644 37.92,341.118644 C53.44,341.118644 60.64,345.810478 60.64,358.106317 C60.64,378.006163 47.36,387.066256 26.4,392.890601 C6.72,398.391371 0,406.48074 0,420.232666 C0,431.072419 7.36,439 21.6,439 C35.04,439 43.68,433.175655 43.68,420.232666 C43.68,403.244992 24,406.157165 24.48,401.788906 C24.48,400.818182 25.6,400.009245 27.52,400.009245 C50.72,400.009245 46.88,439 75.68,439 Z M143.089109,439 C177.148515,439 196,416.258065 196,376.096774 C196,350.129032 184.118812,334 152.277228,334 C109.821782,334 100,359.16129 100,387.870968 C100,424.16129 117.425743,439 143.089109,439 Z M143.88785,429.913462 C141.64486,429.913462 140,427.99199 140,416.46316 C140,379.47483 143.738318,334 151.962617,334 C154.654206,334 156,337.04233 156,346.649689 C156,391.964396 150.018692,429.913462 143.88785,429.913462 Z"></path>
                            <path d="M75.68,772 C89.76,772 96.64,763.748844 96.64,725.567026 C96.64,721.198767 96,716.830508 93.76,716.830508 C92.96,716.830508 92.16,717.315871 92.16,718.286595 C92.16,720.551618 95.04,721.684129 95.04,725.405239 C95.04,729.126348 91.68,730.744222 83.52,730.744222 C70.4,730.744222 61.28,729.773498 41.44,729.773498 C36.64,729.773498 28.96,731.067797 27.84,731.067797 C26.72,731.067797 26.08,730.582435 26.24,729.773498 C26.24,729.288136 26.88,728.640986 27.68,728.317411 C54.4,717.801233 100,730.906009 100,694.665639 C100,673.795069 87.04,667 57.28,667 C19.2,667 6.08,682.208012 6.08,701.622496 C6.08,713.594761 12.48,720.875193 26.56,720.875193 C37.76,720.875193 50.4,712.300462 50.4,695.312789 C50.4,686.738059 46.72,678.325116 34.72,678.325116 C26.24,678.325116 24.32,680.751926 20.48,680.751926 C19.68,680.751926 19.2,680.428351 19.2,679.781202 C19.2,676.545455 26.88,674.118644 37.92,674.118644 C53.44,674.118644 60.64,678.810478 60.64,691.106317 C60.64,711.006163 47.36,720.066256 26.4,725.890601 C6.72,731.391371 0,739.48074 0,753.232666 C0,764.072419 7.36,772 21.6,772 C35.04,772 43.68,766.175655 43.68,753.232666 C43.68,736.244992 24,739.157165 24.48,734.788906 C24.48,733.818182 25.6,733.009245 27.52,733.009245 C50.72,733.009245 46.88,772 75.68,772 Z M143.089109,772 C177.148515,772 196,749.258065 196,709.096774 C196,683.129032 184.118812,667 152.277228,667 C109.821782,667 100,692.16129 100,720.870968 C100,757.16129 117.425743,772 143.089109,772 Z M143.88785,762.913462 C141.64486,762.913462 140,760.99199 140,749.46316 C140,712.47483 143.738318,667 151.962617,667 C154.654206,667 156,670.04233 156,679.649689 C156,724.964396 150.018692,762.913462 143.88785,762.913462 Z"></path>
                            <path d="M271.68,105 C285.76,105 292.64,96.7488444 292.64,58.5670262 C292.64,54.1987673 292,49.8305085 289.76,49.8305085 C288.96,49.8305085 288.16,50.3158706 288.16,51.2865948 C288.16,53.5516179 291.04,54.6841294 291.04,58.4052388 C291.04,62.1263482 287.68,63.7442219 279.52,63.7442219 C266.4,63.7442219 257.28,62.7734977 237.44,62.7734977 C232.64,62.7734977 224.96,64.0677966 223.84,64.0677966 C222.72,64.0677966 222.08,63.5824345 222.24,62.7734977 C222.24,62.2881356 222.88,61.6409861 223.68,61.3174114 C250.4,50.8012327 296,63.9060092 296,27.6656394 C296,6.79506934 283.04,0 253.28,0 C215.2,0 202.08,15.2080123 202.08,34.6224961 C202.08,46.5947612 208.48,53.8751926 222.56,53.8751926 C233.76,53.8751926 246.4,45.3004622 246.4,28.3127889 C246.4,19.7380586 242.72,11.3251156 230.72,11.3251156 C222.24,11.3251156 220.32,13.751926 216.48,13.751926 C215.68,13.751926 215.2,13.4283513 215.2,12.7812018 C215.2,9.54545455 222.88,7.11864407 233.92,7.11864407 C249.44,7.11864407 256.64,11.8104777 256.64,24.1063174 C256.64,44.0061633 243.36,53.0662558 222.4,58.8906009 C202.72,64.3913713 196,72.4807396 196,86.2326656 C196,97.0724191 203.36,105 217.6,105 C231.04,105 239.68,99.1756549 239.68,86.2326656 C239.68,69.2449923 220,72.1571649 220.48,67.788906 C220.48,66.8181818 221.6,66.009245 223.52,66.009245 C246.72,66.009245 242.88,105 271.68,105 Z M339.089109,105 C373.148515,105 392,82.2580645 392,42.0967742 C392,16.1290323 380.118812,0 348.277228,0 C305.821782,0 296,25.1612903 296,53.8709677 C296,90.1612903 313.425743,105 339.089109,105 Z M339.88785,95.9134615 C337.64486,95.9134615 336,93.9919899 336,82.4631598 C336,45.4748298 339.738318,0 347.962617,0 C350.654206,0 352,3.04233017 352,12.6496886 C352,57.9643958 346.018692,95.9134615 339.88785,95.9134615 Z"></path>
                            <path d="M271.68,216 C285.76,216 292.64,207.748844 292.64,169.567026 C292.64,165.198767 292,160.830508 289.76,160.830508 C288.96,160.830508 288.16,161.315871 288.16,162.286595 C288.16,164.551618 291.04,165.684129 291.04,169.405239 C291.04,173.126348 287.68,174.744222 279.52,174.744222 C266.4,174.744222 257.28,173.773498 237.44,173.773498 C232.64,173.773498 224.96,175.067797 223.84,175.067797 C222.72,175.067797 222.08,174.582435 222.24,173.773498 C222.24,173.288136 222.88,172.640986 223.68,172.317411 C250.4,161.801233 296,174.906009 296,138.665639 C296,117.795069 283.04,111 253.28,111 C215.2,111 202.08,126.208012 202.08,145.622496 C202.08,157.594761 208.48,164.875193 222.56,164.875193 C233.76,164.875193 246.4,156.300462 246.4,139.312789 C246.4,130.738059 242.72,122.325116 230.72,122.325116 C222.24,122.325116 220.32,124.751926 216.48,124.751926 C215.68,124.751926 215.2,124.428351 215.2,123.781202 C215.2,120.545455 222.88,118.118644 233.92,118.118644 C249.44,118.118644 256.64,122.810478 256.64,135.106317 C256.64,155.006163 243.36,164.066256 222.4,169.890601 C202.72,175.391371 196,183.48074 196,197.232666 C196,208.072419 203.36,216 217.6,216 C231.04,216 239.68,210.175655 239.68,197.232666 C239.68,180.244992 220,183.157165 220.48,178.788906 C220.48,177.818182 221.6,177.009245 223.52,177.009245 C246.72,177.009245 242.88,216 271.68,216 Z M339.089109,216 C373.148515,216 392,193.258065 392,153.096774 C392,127.129032 380.118812,111 348.277228,111 C305.821782,111 296,136.16129 296,164.870968 C296,201.16129 313.425743,216 339.089109,216 Z M339.88785,206 C337.64486,206 336,204.096828 336,192.677796 C336,156.041736 339.738318,111 347.962617,111 C350.654206,111 352,114.013356 352,123.529215 C352,168.412354 346.018692,206 339.88785,206 Z"></path>
                            <path d="M271.68,549 C285.76,549 292.64,540.748844 292.64,502.567026 C292.64,498.198767 292,493.830508 289.76,493.830508 C288.96,493.830508 288.16,494.315871 288.16,495.286595 C288.16,497.551618 291.04,498.684129 291.04,502.405239 C291.04,506.126348 287.68,507.744222 279.52,507.744222 C266.4,507.744222 257.28,506.773498 237.44,506.773498 C232.64,506.773498 224.96,508.067797 223.84,508.067797 C222.72,508.067797 222.08,507.582435 222.24,506.773498 C222.24,506.288136 222.88,505.640986 223.68,505.317411 C250.4,494.801233 296,507.906009 296,471.665639 C296,450.795069 283.04,444 253.28,444 C215.2,444 202.08,459.208012 202.08,478.622496 C202.08,490.594761 208.48,497.875193 222.56,497.875193 C233.76,497.875193 246.4,489.300462 246.4,472.312789 C246.4,463.738059 242.72,455.325116 230.72,455.325116 C222.24,455.325116 220.32,457.751926 216.48,457.751926 C215.68,457.751926 215.2,457.428351 215.2,456.781202 C215.2,453.545455 222.88,451.118644 233.92,451.118644 C249.44,451.118644 256.64,455.810478 256.64,468.106317 C256.64,488.006163 243.36,497.066256 222.4,502.890601 C202.72,508.391371 196,516.48074 196,530.232666 C196,541.072419 203.36,549 217.6,549 C231.04,549 239.68,543.175655 239.68,530.232666 C239.68,513.244992 220,516.157165 220.48,511.788906 C220.48,510.818182 221.6,510.009245 223.52,510.009245 C246.72,510.009245 242.88,549 271.68,549 Z M339.089109,549 C373.148515,549 392,526.258065 392,486.096774 C392,460.129032 380.118812,444 348.277228,444 C305.821782,444 296,469.16129 296,497.870968 C296,534.16129 313.425743,549 339.089109,549 Z M339.88785,539.913462 C337.64486,539.913462 336,537.99199 336,526.46316 C336,489.47483 339.738318,444 347.962617,444 C350.654206,444 352,447.04233 352,456.649689 C352,501.964396 346.018692,539.913462 339.88785,539.913462 Z"></path>
                            <path d="M271.68,661 C285.76,661 292.64,652.748844 292.64,614.567026 C292.64,610.198767 292,605.830508 289.76,605.830508 C288.96,605.830508 288.16,606.315871 288.16,607.286595 C288.16,609.551618 291.04,610.684129 291.04,614.405239 C291.04,618.126348 287.68,619.744222 279.52,619.744222 C266.4,619.744222 257.28,618.773498 237.44,618.773498 C232.64,618.773498 224.96,620.067797 223.84,620.067797 C222.72,620.067797 222.08,619.582435 222.24,618.773498 C222.24,618.288136 222.88,617.640986 223.68,617.317411 C250.4,606.801233 296,619.906009 296,583.665639 C296,562.795069 283.04,556 253.28,556 C215.2,556 202.08,571.208012 202.08,590.622496 C202.08,602.594761 208.48,609.875193 222.56,609.875193 C233.76,609.875193 246.4,601.300462 246.4,584.312789 C246.4,575.738059 242.72,567.325116 230.72,567.325116 C222.24,567.325116 220.32,569.751926 216.48,569.751926 C215.68,569.751926 215.2,569.428351 215.2,568.781202 C215.2,565.545455 222.88,563.118644 233.92,563.118644 C249.44,563.118644 256.64,567.810478 256.64,580.106317 C256.64,600.006163 243.36,609.066256 222.4,614.890601 C202.72,620.391371 196,628.48074 196,642.232666 C196,653.072419 203.36,661 217.6,661 C231.04,661 239.68,655.175655 239.68,642.232666 C239.68,625.244992 220,628.157165 220.48,623.788906 C220.48,622.818182 221.6,622.009245 223.52,622.009245 C246.72,622.009245 242.88,661 271.68,661 Z M339.089109,661 C373.148515,661 392,638.258065 392,598.096774 C392,572.129032 380.118812,556 348.277228,556 C305.821782,556 296,581.16129 296,609.870968 C296,646.16129 313.425743,661 339.089109,661 Z M339.88785,651 C337.64486,651 336,649.096828 336,637.677796 C336,601.041736 339.738318,556 347.962617,556 C350.654206,556 352,559.013356 352,568.529215 C352,613.412354 346.018692,651 339.88785,651 Z"></path>
                            <path d="M271.68,328 C285.76,328 292.64,319.748844 292.64,281.567026 C292.64,277.198767 292,272.830508 289.76,272.830508 C288.96,272.830508 288.16,273.315871 288.16,274.286595 C288.16,276.551618 291.04,277.684129 291.04,281.405239 C291.04,285.126348 287.68,286.744222 279.52,286.744222 C266.4,286.744222 257.28,285.773498 237.44,285.773498 C232.64,285.773498 224.96,287.067797 223.84,287.067797 C222.72,287.067797 222.08,286.582435 222.24,285.773498 C222.24,285.288136 222.88,284.640986 223.68,284.317411 C250.4,273.801233 296,286.906009 296,250.665639 C296,229.795069 283.04,223 253.28,223 C215.2,223 202.08,238.208012 202.08,257.622496 C202.08,269.594761 208.48,276.875193 222.56,276.875193 C233.76,276.875193 246.4,268.300462 246.4,251.312789 C246.4,242.738059 242.72,234.325116 230.72,234.325116 C222.24,234.325116 220.32,236.751926 216.48,236.751926 C215.68,236.751926 215.2,236.428351 215.2,235.781202 C215.2,232.545455 222.88,230.118644 233.92,230.118644 C249.44,230.118644 256.64,234.810478 256.64,247.106317 C256.64,267.006163 243.36,276.066256 222.4,281.890601 C202.72,287.391371 196,295.48074 196,309.232666 C196,320.072419 203.36,328 217.6,328 C231.04,328 239.68,322.175655 239.68,309.232666 C239.68,292.244992 220,295.157165 220.48,290.788906 C220.48,289.818182 221.6,289.009245 223.52,289.009245 C246.72,289.009245 242.88,328 271.68,328 Z M339.089109,328 C373.148515,328 392,305.258065 392,265.096774 C392,239.129032 380.118812,223 348.277228,223 C305.821782,223 296,248.16129 296,276.870968 C296,313.16129 313.425743,328 339.089109,328 Z M339.88785,318.913462 C337.64486,318.913462 336,316.99199 336,305.46316 C336,268.47483 339.738318,223 347.962617,223 C350.654206,223 352,226.04233 352,235.649689 C352,280.964396 346.018692,318.913462 339.88785,318.913462 Z"></path>
                            <path d="M271.68,439 C285.76,439 292.64,430.748844 292.64,392.567026 C292.64,388.198767 292,383.830508 289.76,383.830508 C288.96,383.830508 288.16,384.315871 288.16,385.286595 C288.16,387.551618 291.04,388.684129 291.04,392.405239 C291.04,396.126348 287.68,397.744222 279.52,397.744222 C266.4,397.744222 257.28,396.773498 237.44,396.773498 C232.64,396.773498 224.96,398.067797 223.84,398.067797 C222.72,398.067797 222.08,397.582435 222.24,396.773498 C222.24,396.288136 222.88,395.640986 223.68,395.317411 C250.4,384.801233 296,397.906009 296,361.665639 C296,340.795069 283.04,334 253.28,334 C215.2,334 202.08,349.208012 202.08,368.622496 C202.08,380.594761 208.48,387.875193 222.56,387.875193 C233.76,387.875193 246.4,379.300462 246.4,362.312789 C246.4,353.738059 242.72,345.325116 230.72,345.325116 C222.24,345.325116 220.32,347.751926 216.48,347.751926 C215.68,347.751926 215.2,347.428351 215.2,346.781202 C215.2,343.545455 222.88,341.118644 233.92,341.118644 C249.44,341.118644 256.64,345.810478 256.64,358.106317 C256.64,378.006163 243.36,387.066256 222.4,392.890601 C202.72,398.391371 196,406.48074 196,420.232666 C196,431.072419 203.36,439 217.6,439 C231.04,439 239.68,433.175655 239.68,420.232666 C239.68,403.244992 220,406.157165 220.48,401.788906 C220.48,400.818182 221.6,400.009245 223.52,400.009245 C246.72,400.009245 242.88,439 271.68,439 Z M339.089109,439 C373.148515,439 392,416.258065 392,376.096774 C392,350.129032 380.118812,334 348.277228,334 C305.821782,334 296,359.16129 296,387.870968 C296,424.16129 313.425743,439 339.089109,439 Z M339.88785,429.913462 C337.64486,429.913462 336,427.99199 336,416.46316 C336,379.47483 339.738318,334 347.962617,334 C350.654206,334 352,337.04233 352,346.649689 C352,391.964396 346.018692,429.913462 339.88785,429.913462 Z"></path>
                            <path d="M271.68,772 C285.76,772 292.64,763.748844 292.64,725.567026 C292.64,721.198767 292,716.830508 289.76,716.830508 C288.96,716.830508 288.16,717.315871 288.16,718.286595 C288.16,720.551618 291.04,721.684129 291.04,725.405239 C291.04,729.126348 287.68,730.744222 279.52,730.744222 C266.4,730.744222 257.28,729.773498 237.44,729.773498 C232.64,729.773498 224.96,731.067797 223.84,731.067797 C222.72,731.067797 222.08,730.582435 222.24,729.773498 C222.24,729.288136 222.88,728.640986 223.68,728.317411 C250.4,717.801233 296,730.906009 296,694.665639 C296,673.795069 283.04,667 253.28,667 C215.2,667 202.08,682.208012 202.08,701.622496 C202.08,713.594761 208.48,720.875193 222.56,720.875193 C233.76,720.875193 246.4,712.300462 246.4,695.312789 C246.4,686.738059 242.72,678.325116 230.72,678.325116 C222.24,678.325116 220.32,680.751926 216.48,680.751926 C215.68,680.751926 215.2,680.428351 215.2,679.781202 C215.2,676.545455 222.88,674.118644 233.92,674.118644 C249.44,674.118644 256.64,678.810478 256.64,691.106317 C256.64,711.006163 243.36,720.066256 222.4,725.890601 C202.72,731.391371 196,739.48074 196,753.232666 C196,764.072419 203.36,772 217.6,772 C231.04,772 239.68,766.175655 239.68,753.232666 C239.68,736.244992 220,739.157165 220.48,734.788906 C220.48,733.818182 221.6,733.009245 223.52,733.009245 C246.72,733.009245 242.88,772 271.68,772 Z M339.089109,772 C373.148515,772 392,749.258065 392,709.096774 C392,683.129032 380.118812,667 348.277228,667 C305.821782,667 296,692.16129 296,720.870968 C296,757.16129 313.425743,772 339.089109,772 Z M339.88785,762.913462 C337.64486,762.913462 336,760.99199 336,749.46316 C336,712.47483 339.738318,667 347.962617,667 C350.654206,667 352,670.04233 352,679.649689 C352,724.964396 346.018692,762.913462 339.88785,762.913462 Z"></path>
                            <path d="M467.68,105 C481.76,105 488.64,96.7488444 488.64,58.5670262 C488.64,54.1987673 488,49.8305085 485.76,49.8305085 C484.96,49.8305085 484.16,50.3158706 484.16,51.2865948 C484.16,53.5516179 487.04,54.6841294 487.04,58.4052388 C487.04,62.1263482 483.68,63.7442219 475.52,63.7442219 C462.4,63.7442219 453.28,62.7734977 433.44,62.7734977 C428.64,62.7734977 420.96,64.0677966 419.84,64.0677966 C418.72,64.0677966 418.08,63.5824345 418.24,62.7734977 C418.24,62.2881356 418.88,61.6409861 419.68,61.3174114 C446.4,50.8012327 492,63.9060092 492,27.6656394 C492,6.79506934 479.04,0 449.28,0 C411.2,0 398.08,15.2080123 398.08,34.6224961 C398.08,46.5947612 404.48,53.8751926 418.56,53.8751926 C429.76,53.8751926 442.4,45.3004622 442.4,28.3127889 C442.4,19.7380586 438.72,11.3251156 426.72,11.3251156 C418.24,11.3251156 416.32,13.751926 412.48,13.751926 C411.68,13.751926 411.2,13.4283513 411.2,12.7812018 C411.2,9.54545455 418.88,7.11864407 429.92,7.11864407 C445.44,7.11864407 452.64,11.8104777 452.64,24.1063174 C452.64,44.0061633 439.36,53.0662558 418.4,58.8906009 C398.72,64.3913713 392,72.4807396 392,86.2326656 C392,97.0724191 399.36,105 413.6,105 C427.04,105 435.68,99.1756549 435.68,86.2326656 C435.68,69.2449923 416,72.1571649 416.48,67.788906 C416.48,66.8181818 417.6,66.009245 419.52,66.009245 C442.72,66.009245 438.88,105 467.68,105 Z M535.089109,105 C569.148515,105 588,82.2580645 588,42.0967742 C588,16.1290323 576.118812,0 544.277228,0 C501.821782,0 492,25.1612903 492,53.8709677 C492,90.1612903 509.425743,105 535.089109,105 Z M535.88785,95.9134615 C533.64486,95.9134615 532,93.9919899 532,82.4631598 C532,45.4748298 535.738318,0 543.962617,0 C546.654206,0 548,3.04233017 548,12.6496886 C548,57.9643958 542.018692,95.9134615 535.88785,95.9134615 Z"></path>
                            <path d="M467.68,216 C481.76,216 488.64,207.748844 488.64,169.567026 C488.64,165.198767 488,160.830508 485.76,160.830508 C484.96,160.830508 484.16,161.315871 484.16,162.286595 C484.16,164.551618 487.04,165.684129 487.04,169.405239 C487.04,173.126348 483.68,174.744222 475.52,174.744222 C462.4,174.744222 453.28,173.773498 433.44,173.773498 C428.64,173.773498 420.96,175.067797 419.84,175.067797 C418.72,175.067797 418.08,174.582435 418.24,173.773498 C418.24,173.288136 418.88,172.640986 419.68,172.317411 C446.4,161.801233 492,174.906009 492,138.665639 C492,117.795069 479.04,111 449.28,111 C411.2,111 398.08,126.208012 398.08,145.622496 C398.08,157.594761 404.48,164.875193 418.56,164.875193 C429.76,164.875193 442.4,156.300462 442.4,139.312789 C442.4,130.738059 438.72,122.325116 426.72,122.325116 C418.24,122.325116 416.32,124.751926 412.48,124.751926 C411.68,124.751926 411.2,124.428351 411.2,123.781202 C411.2,120.545455 418.88,118.118644 429.92,118.118644 C445.44,118.118644 452.64,122.810478 452.64,135.106317 C452.64,155.006163 439.36,164.066256 418.4,169.890601 C398.72,175.391371 392,183.48074 392,197.232666 C392,208.072419 399.36,216 413.6,216 C427.04,216 435.68,210.175655 435.68,197.232666 C435.68,180.244992 416,183.157165 416.48,178.788906 C416.48,177.818182 417.6,177.009245 419.52,177.009245 C442.72,177.009245 438.88,216 467.68,216 Z M535.089109,216 C569.148515,216 588,193.258065 588,153.096774 C588,127.129032 576.118812,111 544.277228,111 C501.821782,111 492,136.16129 492,164.870968 C492,201.16129 509.425743,216 535.089109,216 Z M535.88785,206 C533.64486,206 532,204.096828 532,192.677796 C532,156.041736 535.738318,111 543.962617,111 C546.654206,111 548,114.013356 548,123.529215 C548,168.412354 542.018692,206 535.88785,206 Z"></path>
                            <path d="M467.68,549 C481.76,549 488.64,540.748844 488.64,502.567026 C488.64,498.198767 488,493.830508 485.76,493.830508 C484.96,493.830508 484.16,494.315871 484.16,495.286595 C484.16,497.551618 487.04,498.684129 487.04,502.405239 C487.04,506.126348 483.68,507.744222 475.52,507.744222 C462.4,507.744222 453.28,506.773498 433.44,506.773498 C428.64,506.773498 420.96,508.067797 419.84,508.067797 C418.72,508.067797 418.08,507.582435 418.24,506.773498 C418.24,506.288136 418.88,505.640986 419.68,505.317411 C446.4,494.801233 492,507.906009 492,471.665639 C492,450.795069 479.04,444 449.28,444 C411.2,444 398.08,459.208012 398.08,478.622496 C398.08,490.594761 404.48,497.875193 418.56,497.875193 C429.76,497.875193 442.4,489.300462 442.4,472.312789 C442.4,463.738059 438.72,455.325116 426.72,455.325116 C418.24,455.325116 416.32,457.751926 412.48,457.751926 C411.68,457.751926 411.2,457.428351 411.2,456.781202 C411.2,453.545455 418.88,451.118644 429.92,451.118644 C445.44,451.118644 452.64,455.810478 452.64,468.106317 C452.64,488.006163 439.36,497.066256 418.4,502.890601 C398.72,508.391371 392,516.48074 392,530.232666 C392,541.072419 399.36,549 413.6,549 C427.04,549 435.68,543.175655 435.68,530.232666 C435.68,513.244992 416,516.157165 416.48,511.788906 C416.48,510.818182 417.6,510.009245 419.52,510.009245 C442.72,510.009245 438.88,549 467.68,549 Z M535.089109,549 C569.148515,549 588,526.258065 588,486.096774 C588,460.129032 576.118812,444 544.277228,444 C501.821782,444 492,469.16129 492,497.870968 C492,534.16129 509.425743,549 535.089109,549 Z M535.88785,539.913462 C533.64486,539.913462 532,537.99199 532,526.46316 C532,489.47483 535.738318,444 543.962617,444 C546.654206,444 548,447.04233 548,456.649689 C548,501.964396 542.018692,539.913462 535.88785,539.913462 Z"></path>
                            <path d="M467.68,661 C481.76,661 488.64,652.748844 488.64,614.567026 C488.64,610.198767 488,605.830508 485.76,605.830508 C484.96,605.830508 484.16,606.315871 484.16,607.286595 C484.16,609.551618 487.04,610.684129 487.04,614.405239 C487.04,618.126348 483.68,619.744222 475.52,619.744222 C462.4,619.744222 453.28,618.773498 433.44,618.773498 C428.64,618.773498 420.96,620.067797 419.84,620.067797 C418.72,620.067797 418.08,619.582435 418.24,618.773498 C418.24,618.288136 418.88,617.640986 419.68,617.317411 C446.4,606.801233 492,619.906009 492,583.665639 C492,562.795069 479.04,556 449.28,556 C411.2,556 398.08,571.208012 398.08,590.622496 C398.08,602.594761 404.48,609.875193 418.56,609.875193 C429.76,609.875193 442.4,601.300462 442.4,584.312789 C442.4,575.738059 438.72,567.325116 426.72,567.325116 C418.24,567.325116 416.32,569.751926 412.48,569.751926 C411.68,569.751926 411.2,569.428351 411.2,568.781202 C411.2,565.545455 418.88,563.118644 429.92,563.118644 C445.44,563.118644 452.64,567.810478 452.64,580.106317 C452.64,600.006163 439.36,609.066256 418.4,614.890601 C398.72,620.391371 392,628.48074 392,642.232666 C392,653.072419 399.36,661 413.6,661 C427.04,661 435.68,655.175655 435.68,642.232666 C435.68,625.244992 416,628.157165 416.48,623.788906 C416.48,622.818182 417.6,622.009245 419.52,622.009245 C442.72,622.009245 438.88,661 467.68,661 Z M535.089109,661 C569.148515,661 588,638.258065 588,598.096774 C588,572.129032 576.118812,556 544.277228,556 C501.821782,556 492,581.16129 492,609.870968 C492,646.16129 509.425743,661 535.089109,661 Z M535.88785,651 C533.64486,651 532,649.096828 532,637.677796 C532,601.041736 535.738318,556 543.962617,556 C546.654206,556 548,559.013356 548,568.529215 C548,613.412354 542.018692,651 535.88785,651 Z"></path>
                            <path d="M467.68,328 C481.76,328 488.64,319.748844 488.64,281.567026 C488.64,277.198767 488,272.830508 485.76,272.830508 C484.96,272.830508 484.16,273.315871 484.16,274.286595 C484.16,276.551618 487.04,277.684129 487.04,281.405239 C487.04,285.126348 483.68,286.744222 475.52,286.744222 C462.4,286.744222 453.28,285.773498 433.44,285.773498 C428.64,285.773498 420.96,287.067797 419.84,287.067797 C418.72,287.067797 418.08,286.582435 418.24,285.773498 C418.24,285.288136 418.88,284.640986 419.68,284.317411 C446.4,273.801233 492,286.906009 492,250.665639 C492,229.795069 479.04,223 449.28,223 C411.2,223 398.08,238.208012 398.08,257.622496 C398.08,269.594761 404.48,276.875193 418.56,276.875193 C429.76,276.875193 442.4,268.300462 442.4,251.312789 C442.4,242.738059 438.72,234.325116 426.72,234.325116 C418.24,234.325116 416.32,236.751926 412.48,236.751926 C411.68,236.751926 411.2,236.428351 411.2,235.781202 C411.2,232.545455 418.88,230.118644 429.92,230.118644 C445.44,230.118644 452.64,234.810478 452.64,247.106317 C452.64,267.006163 439.36,276.066256 418.4,281.890601 C398.72,287.391371 392,295.48074 392,309.232666 C392,320.072419 399.36,328 413.6,328 C427.04,328 435.68,322.175655 435.68,309.232666 C435.68,292.244992 416,295.157165 416.48,290.788906 C416.48,289.818182 417.6,289.009245 419.52,289.009245 C442.72,289.009245 438.88,328 467.68,328 Z M535.089109,328 C569.148515,328 588,305.258065 588,265.096774 C588,239.129032 576.118812,223 544.277228,223 C501.821782,223 492,248.16129 492,276.870968 C492,313.16129 509.425743,328 535.089109,328 Z M535.88785,318.913462 C533.64486,318.913462 532,316.99199 532,305.46316 C532,268.47483 535.738318,223 543.962617,223 C546.654206,223 548,226.04233 548,235.649689 C548,280.964396 542.018692,318.913462 535.88785,318.913462 Z"></path>
                            <path d="M467.68,439 C481.76,439 488.64,430.748844 488.64,392.567026 C488.64,388.198767 488,383.830508 485.76,383.830508 C484.96,383.830508 484.16,384.315871 484.16,385.286595 C484.16,387.551618 487.04,388.684129 487.04,392.405239 C487.04,396.126348 483.68,397.744222 475.52,397.744222 C462.4,397.744222 453.28,396.773498 433.44,396.773498 C428.64,396.773498 420.96,398.067797 419.84,398.067797 C418.72,398.067797 418.08,397.582435 418.24,396.773498 C418.24,396.288136 418.88,395.640986 419.68,395.317411 C446.4,384.801233 492,397.906009 492,361.665639 C492,340.795069 479.04,334 449.28,334 C411.2,334 398.08,349.208012 398.08,368.622496 C398.08,380.594761 404.48,387.875193 418.56,387.875193 C429.76,387.875193 442.4,379.300462 442.4,362.312789 C442.4,353.738059 438.72,345.325116 426.72,345.325116 C418.24,345.325116 416.32,347.751926 412.48,347.751926 C411.68,347.751926 411.2,347.428351 411.2,346.781202 C411.2,343.545455 418.88,341.118644 429.92,341.118644 C445.44,341.118644 452.64,345.810478 452.64,358.106317 C452.64,378.006163 439.36,387.066256 418.4,392.890601 C398.72,398.391371 392,406.48074 392,420.232666 C392,431.072419 399.36,439 413.6,439 C427.04,439 435.68,433.175655 435.68,420.232666 C435.68,403.244992 416,406.157165 416.48,401.788906 C416.48,400.818182 417.6,400.009245 419.52,400.009245 C442.72,400.009245 438.88,439 467.68,439 Z M535.089109,439 C569.148515,439 588,416.258065 588,376.096774 C588,350.129032 576.118812,334 544.277228,334 C501.821782,334 492,359.16129 492,387.870968 C492,424.16129 509.425743,439 535.089109,439 Z M535.88785,429.913462 C533.64486,429.913462 532,427.99199 532,416.46316 C532,379.47483 535.738318,334 543.962617,334 C546.654206,334 548,337.04233 548,346.649689 C548,391.964396 542.018692,429.913462 535.88785,429.913462 Z"></path>
                            <path d="M467.68,772 C481.76,772 488.64,763.748844 488.64,725.567026 C488.64,721.198767 488,716.830508 485.76,716.830508 C484.96,716.830508 484.16,717.315871 484.16,718.286595 C484.16,720.551618 487.04,721.684129 487.04,725.405239 C487.04,729.126348 483.68,730.744222 475.52,730.744222 C462.4,730.744222 453.28,729.773498 433.44,729.773498 C428.64,729.773498 420.96,731.067797 419.84,731.067797 C418.72,731.067797 418.08,730.582435 418.24,729.773498 C418.24,729.288136 418.88,728.640986 419.68,728.317411 C446.4,717.801233 492,730.906009 492,694.665639 C492,673.795069 479.04,667 449.28,667 C411.2,667 398.08,682.208012 398.08,701.622496 C398.08,713.594761 404.48,720.875193 418.56,720.875193 C429.76,720.875193 442.4,712.300462 442.4,695.312789 C442.4,686.738059 438.72,678.325116 426.72,678.325116 C418.24,678.325116 416.32,680.751926 412.48,680.751926 C411.68,680.751926 411.2,680.428351 411.2,679.781202 C411.2,676.545455 418.88,674.118644 429.92,674.118644 C445.44,674.118644 452.64,678.810478 452.64,691.106317 C452.64,711.006163 439.36,720.066256 418.4,725.890601 C398.72,731.391371 392,739.48074 392,753.232666 C392,764.072419 399.36,772 413.6,772 C427.04,772 435.68,766.175655 435.68,753.232666 C435.68,736.244992 416,739.157165 416.48,734.788906 C416.48,733.818182 417.6,733.009245 419.52,733.009245 C442.72,733.009245 438.88,772 467.68,772 Z M535.089109,772 C569.148515,772 588,749.258065 588,709.096774 C588,683.129032 576.118812,667 544.277228,667 C501.821782,667 492,692.16129 492,720.870968 C492,757.16129 509.425743,772 535.089109,772 Z M535.88785,762.913462 C533.64486,762.913462 532,760.99199 532,749.46316 C532,712.47483 535.738318,667 543.962617,667 C546.654206,667 548,670.04233 548,679.649689 C548,724.964396 542.018692,762.913462 535.88785,762.913462 Z"></path>
                            <path d="M663.68,105 C677.76,105 684.64,96.7488444 684.64,58.5670262 C684.64,54.1987673 684,49.8305085 681.76,49.8305085 C680.96,49.8305085 680.16,50.3158706 680.16,51.2865948 C680.16,53.5516179 683.04,54.6841294 683.04,58.4052388 C683.04,62.1263482 679.68,63.7442219 671.52,63.7442219 C658.4,63.7442219 649.28,62.7734977 629.44,62.7734977 C624.64,62.7734977 616.96,64.0677966 615.84,64.0677966 C614.72,64.0677966 614.08,63.5824345 614.24,62.7734977 C614.24,62.2881356 614.88,61.6409861 615.68,61.3174114 C642.4,50.8012327 688,63.9060092 688,27.6656394 C688,6.79506934 675.04,0 645.28,0 C607.2,0 594.08,15.2080123 594.08,34.6224961 C594.08,46.5947612 600.48,53.8751926 614.56,53.8751926 C625.76,53.8751926 638.4,45.3004622 638.4,28.3127889 C638.4,19.7380586 634.72,11.3251156 622.72,11.3251156 C614.24,11.3251156 612.32,13.751926 608.48,13.751926 C607.68,13.751926 607.2,13.4283513 607.2,12.7812018 C607.2,9.54545455 614.88,7.11864407 625.92,7.11864407 C641.44,7.11864407 648.64,11.8104777 648.64,24.1063174 C648.64,44.0061633 635.36,53.0662558 614.4,58.8906009 C594.72,64.3913713 588,72.4807396 588,86.2326656 C588,97.0724191 595.36,105 609.6,105 C623.04,105 631.68,99.1756549 631.68,86.2326656 C631.68,69.2449923 612,72.1571649 612.48,67.788906 C612.48,66.8181818 613.6,66.009245 615.52,66.009245 C638.72,66.009245 634.88,105 663.68,105 Z M731.089109,105 C765.148515,105 784,82.2580645 784,42.0967742 C784,16.1290323 772.118812,0 740.277228,0 C697.821782,0 688,25.1612903 688,53.8709677 C688,90.1612903 705.425743,105 731.089109,105 Z M731.88785,95.9134615 C729.64486,95.9134615 728,93.9919899 728,82.4631598 C728,45.4748298 731.738318,0 739.962617,0 C742.654206,0 744,3.04233017 744,12.6496886 C744,57.9643958 738.018692,95.9134615 731.88785,95.9134615 Z"></path>
                            <path d="M663.68,216 C677.76,216 684.64,207.748844 684.64,169.567026 C684.64,165.198767 684,160.830508 681.76,160.830508 C680.96,160.830508 680.16,161.315871 680.16,162.286595 C680.16,164.551618 683.04,165.684129 683.04,169.405239 C683.04,173.126348 679.68,174.744222 671.52,174.744222 C658.4,174.744222 649.28,173.773498 629.44,173.773498 C624.64,173.773498 616.96,175.067797 615.84,175.067797 C614.72,175.067797 614.08,174.582435 614.24,173.773498 C614.24,173.288136 614.88,172.640986 615.68,172.317411 C642.4,161.801233 688,174.906009 688,138.665639 C688,117.795069 675.04,111 645.28,111 C607.2,111 594.08,126.208012 594.08,145.622496 C594.08,157.594761 600.48,164.875193 614.56,164.875193 C625.76,164.875193 638.4,156.300462 638.4,139.312789 C638.4,130.738059 634.72,122.325116 622.72,122.325116 C614.24,122.325116 612.32,124.751926 608.48,124.751926 C607.68,124.751926 607.2,124.428351 607.2,123.781202 C607.2,120.545455 614.88,118.118644 625.92,118.118644 C641.44,118.118644 648.64,122.810478 648.64,135.106317 C648.64,155.006163 635.36,164.066256 614.4,169.890601 C594.72,175.391371 588,183.48074 588,197.232666 C588,208.072419 595.36,216 609.6,216 C623.04,216 631.68,210.175655 631.68,197.232666 C631.68,180.244992 612,183.157165 612.48,178.788906 C612.48,177.818182 613.6,177.009245 615.52,177.009245 C638.72,177.009245 634.88,216 663.68,216 Z M731.089109,216 C765.148515,216 784,193.258065 784,153.096774 C784,127.129032 772.118812,111 740.277228,111 C697.821782,111 688,136.16129 688,164.870968 C688,201.16129 705.425743,216 731.089109,216 Z M731.88785,206 C729.64486,206 728,204.096828 728,192.677796 C728,156.041736 731.738318,111 739.962617,111 C742.654206,111 744,114.013356 744,123.529215 C744,168.412354 738.018692,206 731.88785,206 Z"></path>
                            <path d="M663.68,549 C677.76,549 684.64,540.748844 684.64,502.567026 C684.64,498.198767 684,493.830508 681.76,493.830508 C680.96,493.830508 680.16,494.315871 680.16,495.286595 C680.16,497.551618 683.04,498.684129 683.04,502.405239 C683.04,506.126348 679.68,507.744222 671.52,507.744222 C658.4,507.744222 649.28,506.773498 629.44,506.773498 C624.64,506.773498 616.96,508.067797 615.84,508.067797 C614.72,508.067797 614.08,507.582435 614.24,506.773498 C614.24,506.288136 614.88,505.640986 615.68,505.317411 C642.4,494.801233 688,507.906009 688,471.665639 C688,450.795069 675.04,444 645.28,444 C607.2,444 594.08,459.208012 594.08,478.622496 C594.08,490.594761 600.48,497.875193 614.56,497.875193 C625.76,497.875193 638.4,489.300462 638.4,472.312789 C638.4,463.738059 634.72,455.325116 622.72,455.325116 C614.24,455.325116 612.32,457.751926 608.48,457.751926 C607.68,457.751926 607.2,457.428351 607.2,456.781202 C607.2,453.545455 614.88,451.118644 625.92,451.118644 C641.44,451.118644 648.64,455.810478 648.64,468.106317 C648.64,488.006163 635.36,497.066256 614.4,502.890601 C594.72,508.391371 588,516.48074 588,530.232666 C588,541.072419 595.36,549 609.6,549 C623.04,549 631.68,543.175655 631.68,530.232666 C631.68,513.244992 612,516.157165 612.48,511.788906 C612.48,510.818182 613.6,510.009245 615.52,510.009245 C638.72,510.009245 634.88,549 663.68,549 Z M731.089109,549 C765.148515,549 784,526.258065 784,486.096774 C784,460.129032 772.118812,444 740.277228,444 C697.821782,444 688,469.16129 688,497.870968 C688,534.16129 705.425743,549 731.089109,549 Z M731.88785,539.913462 C729.64486,539.913462 728,537.99199 728,526.46316 C728,489.47483 731.738318,444 739.962617,444 C742.654206,444 744,447.04233 744,456.649689 C744,501.964396 738.018692,539.913462 731.88785,539.913462 Z"></path>
                            <path d="M663.68,661 C677.76,661 684.64,652.748844 684.64,614.567026 C684.64,610.198767 684,605.830508 681.76,605.830508 C680.96,605.830508 680.16,606.315871 680.16,607.286595 C680.16,609.551618 683.04,610.684129 683.04,614.405239 C683.04,618.126348 679.68,619.744222 671.52,619.744222 C658.4,619.744222 649.28,618.773498 629.44,618.773498 C624.64,618.773498 616.96,620.067797 615.84,620.067797 C614.72,620.067797 614.08,619.582435 614.24,618.773498 C614.24,618.288136 614.88,617.640986 615.68,617.317411 C642.4,606.801233 688,619.906009 688,583.665639 C688,562.795069 675.04,556 645.28,556 C607.2,556 594.08,571.208012 594.08,590.622496 C594.08,602.594761 600.48,609.875193 614.56,609.875193 C625.76,609.875193 638.4,601.300462 638.4,584.312789 C638.4,575.738059 634.72,567.325116 622.72,567.325116 C614.24,567.325116 612.32,569.751926 608.48,569.751926 C607.68,569.751926 607.2,569.428351 607.2,568.781202 C607.2,565.545455 614.88,563.118644 625.92,563.118644 C641.44,563.118644 648.64,567.810478 648.64,580.106317 C648.64,600.006163 635.36,609.066256 614.4,614.890601 C594.72,620.391371 588,628.48074 588,642.232666 C588,653.072419 595.36,661 609.6,661 C623.04,661 631.68,655.175655 631.68,642.232666 C631.68,625.244992 612,628.157165 612.48,623.788906 C612.48,622.818182 613.6,622.009245 615.52,622.009245 C638.72,622.009245 634.88,661 663.68,661 Z M731.089109,661 C765.148515,661 784,638.258065 784,598.096774 C784,572.129032 772.118812,556 740.277228,556 C697.821782,556 688,581.16129 688,609.870968 C688,646.16129 705.425743,661 731.089109,661 Z M731.88785,651 C729.64486,651 728,649.096828 728,637.677796 C728,601.041736 731.738318,556 739.962617,556 C742.654206,556 744,559.013356 744,568.529215 C744,613.412354 738.018692,651 731.88785,651 Z"></path>
                            <path d="M663.68,328 C677.76,328 684.64,319.748844 684.64,281.567026 C684.64,277.198767 684,272.830508 681.76,272.830508 C680.96,272.830508 680.16,273.315871 680.16,274.286595 C680.16,276.551618 683.04,277.684129 683.04,281.405239 C683.04,285.126348 679.68,286.744222 671.52,286.744222 C658.4,286.744222 649.28,285.773498 629.44,285.773498 C624.64,285.773498 616.96,287.067797 615.84,287.067797 C614.72,287.067797 614.08,286.582435 614.24,285.773498 C614.24,285.288136 614.88,284.640986 615.68,284.317411 C642.4,273.801233 688,286.906009 688,250.665639 C688,229.795069 675.04,223 645.28,223 C607.2,223 594.08,238.208012 594.08,257.622496 C594.08,269.594761 600.48,276.875193 614.56,276.875193 C625.76,276.875193 638.4,268.300462 638.4,251.312789 C638.4,242.738059 634.72,234.325116 622.72,234.325116 C614.24,234.325116 612.32,236.751926 608.48,236.751926 C607.68,236.751926 607.2,236.428351 607.2,235.781202 C607.2,232.545455 614.88,230.118644 625.92,230.118644 C641.44,230.118644 648.64,234.810478 648.64,247.106317 C648.64,267.006163 635.36,276.066256 614.4,281.890601 C594.72,287.391371 588,295.48074 588,309.232666 C588,320.072419 595.36,328 609.6,328 C623.04,328 631.68,322.175655 631.68,309.232666 C631.68,292.244992 612,295.157165 612.48,290.788906 C612.48,289.818182 613.6,289.009245 615.52,289.009245 C638.72,289.009245 634.88,328 663.68,328 Z M731.089109,328 C765.148515,328 784,305.258065 784,265.096774 C784,239.129032 772.118812,223 740.277228,223 C697.821782,223 688,248.16129 688,276.870968 C688,313.16129 705.425743,328 731.089109,328 Z M731.88785,318.913462 C729.64486,318.913462 728,316.99199 728,305.46316 C728,268.47483 731.738318,223 739.962617,223 C742.654206,223 744,226.04233 744,235.649689 C744,280.964396 738.018692,318.913462 731.88785,318.913462 Z"></path>
                            <path d="M663.68,439 C677.76,439 684.64,430.748844 684.64,392.567026 C684.64,388.198767 684,383.830508 681.76,383.830508 C680.96,383.830508 680.16,384.315871 680.16,385.286595 C680.16,387.551618 683.04,388.684129 683.04,392.405239 C683.04,396.126348 679.68,397.744222 671.52,397.744222 C658.4,397.744222 649.28,396.773498 629.44,396.773498 C624.64,396.773498 616.96,398.067797 615.84,398.067797 C614.72,398.067797 614.08,397.582435 614.24,396.773498 C614.24,396.288136 614.88,395.640986 615.68,395.317411 C642.4,384.801233 688,397.906009 688,361.665639 C688,340.795069 675.04,334 645.28,334 C607.2,334 594.08,349.208012 594.08,368.622496 C594.08,380.594761 600.48,387.875193 614.56,387.875193 C625.76,387.875193 638.4,379.300462 638.4,362.312789 C638.4,353.738059 634.72,345.325116 622.72,345.325116 C614.24,345.325116 612.32,347.751926 608.48,347.751926 C607.68,347.751926 607.2,347.428351 607.2,346.781202 C607.2,343.545455 614.88,341.118644 625.92,341.118644 C641.44,341.118644 648.64,345.810478 648.64,358.106317 C648.64,378.006163 635.36,387.066256 614.4,392.890601 C594.72,398.391371 588,406.48074 588,420.232666 C588,431.072419 595.36,439 609.6,439 C623.04,439 631.68,433.175655 631.68,420.232666 C631.68,403.244992 612,406.157165 612.48,401.788906 C612.48,400.818182 613.6,400.009245 615.52,400.009245 C638.72,400.009245 634.88,439 663.68,439 Z M731.089109,439 C765.148515,439 784,416.258065 784,376.096774 C784,350.129032 772.118812,334 740.277228,334 C697.821782,334 688,359.16129 688,387.870968 C688,424.16129 705.425743,439 731.089109,439 Z M731.88785,429.913462 C729.64486,429.913462 728,427.99199 728,416.46316 C728,379.47483 731.738318,334 739.962617,334 C742.654206,334 744,337.04233 744,346.649689 C744,391.964396 738.018692,429.913462 731.88785,429.913462 Z"></path>
                            <path d="M663.68,772 C677.76,772 684.64,763.748844 684.64,725.567026 C684.64,721.198767 684,716.830508 681.76,716.830508 C680.96,716.830508 680.16,717.315871 680.16,718.286595 C680.16,720.551618 683.04,721.684129 683.04,725.405239 C683.04,729.126348 679.68,730.744222 671.52,730.744222 C658.4,730.744222 649.28,729.773498 629.44,729.773498 C624.64,729.773498 616.96,731.067797 615.84,731.067797 C614.72,731.067797 614.08,730.582435 614.24,729.773498 C614.24,729.288136 614.88,728.640986 615.68,728.317411 C642.4,717.801233 688,730.906009 688,694.665639 C688,673.795069 675.04,667 645.28,667 C607.2,667 594.08,682.208012 594.08,701.622496 C594.08,713.594761 600.48,720.875193 614.56,720.875193 C625.76,720.875193 638.4,712.300462 638.4,695.312789 C638.4,686.738059 634.72,678.325116 622.72,678.325116 C614.24,678.325116 612.32,680.751926 608.48,680.751926 C607.68,680.751926 607.2,680.428351 607.2,679.781202 C607.2,676.545455 614.88,674.118644 625.92,674.118644 C641.44,674.118644 648.64,678.810478 648.64,691.106317 C648.64,711.006163 635.36,720.066256 614.4,725.890601 C594.72,731.391371 588,739.48074 588,753.232666 C588,764.072419 595.36,772 609.6,772 C623.04,772 631.68,766.175655 631.68,753.232666 C631.68,736.244992 612,739.157165 612.48,734.788906 C612.48,733.818182 613.6,733.009245 615.52,733.009245 C638.72,733.009245 634.88,772 663.68,772 Z M731.089109,772 C765.148515,772 784,749.258065 784,709.096774 C784,683.129032 772.118812,667 740.277228,667 C697.821782,667 688,692.16129 688,720.870968 C688,757.16129 705.425743,772 731.089109,772 Z M731.88785,762.913462 C729.64486,762.913462 728,760.99199 728,749.46316 C728,712.47483 731.738318,667 739.962617,667 C742.654206,667 744,670.04233 744,679.649689 C744,724.964396 738.018692,762.913462 731.88785,762.913462 Z"></path>
                        </g>
                    </g>
                </g>
            </g>
        </g>
    </g>
</svg>