<?xml version="1.0" encoding="UTF-8"?>
<svg width="809px" height="226px" viewBox="0 0 809 226" version="1.1" xmlns="http://www.w3.org/2000/svg" xmlns:xlink="http://www.w3.org/1999/xlink">
    <!-- Generator: Sketch 61.2 (89653) - https://sketch.com -->
    <title>2020 Pattern</title>
    <desc>Created with Sketch.</desc>
    <g id="Website" stroke="none" stroke-width="1" fill="none" fill-rule="evenodd">
        <g id="Designers-–-Tablet-810" transform="translate(0.000000, -105.000000)" fill="#F7F7F7" fill-rule="nonzero">
            <g id="1-Header" transform="translate(0.000000, 105.000000)">
                <g id="2020-Pattern">
                    <path d="M443.825041,54 C451.048305,54 454.577854,49.7565485 454.577854,30.1201849 C454.577854,27.8736518 454.249524,25.6271186 453.100368,25.6271186 C452.689956,25.6271186 452.279543,25.8767334 452.279543,26.375963 C452.279543,27.540832 453.757029,28.1232666 453.757029,30.03698 C453.757029,31.9506934 452.033295,32.7827427 447.847086,32.7827427 C441.116317,32.7827427 436.437613,32.2835131 426.259378,32.2835131 C423.796902,32.2835131 419.85694,32.9491525 419.282362,32.9491525 C418.707784,32.9491525 418.379454,32.6995378 418.461537,32.2835131 C418.461537,32.0338983 418.789867,31.7010786 419.200279,31.5346687 C432.908063,26.1263482 456.301587,32.8659476 456.301587,14.2280431 C456.301587,3.49460709 449.652902,0 434.385549,0 C414.849905,0 408.119137,7.82126348 408.119137,17.8058552 C408.119137,23.96302 411.402438,27.7072419 418.625702,27.7072419 C424.371479,27.7072419 430.856,23.2973806 430.856,14.5608629 C430.856,10.1510015 428.968102,5.82434515 422.811911,5.82434515 C418.461537,5.82434515 417.476546,7.07241911 415.506565,7.07241911 C415.096152,7.07241911 414.849905,6.90600924 414.849905,6.57318952 C414.849905,4.90909091 418.789867,3.66101695 424.453562,3.66101695 C432.415568,3.66101695 436.109283,6.07395994 436.109283,12.3975347 C436.109283,22.6317411 429.296432,27.2912173 418.543619,30.2865948 C408.447467,33.1155624 405,37.2758089 405,44.348228 C405,49.9229584 408.775797,54 416.081143,54 C422.976076,54 427.408533,51.0046225 427.408533,44.348228 C427.408533,35.6117103 417.312381,37.1093991 417.558629,34.8628659 C417.558629,34.3636364 418.133206,33.9476117 419.118197,33.9476117 C431.020165,33.9476117 429.050184,54 443.825041,54 Z M478.608466,54 C496.240741,54 506,42.3041475 506,21.6497696 C506,8.29493088 499.849206,0 483.365079,0 C461.386243,0 456.301587,12.9400922 456.301587,27.7050691 C456.301587,46.3686636 465.322751,54 478.608466,54 Z M479.090639,49.0909091 C477.966919,49.0909091 477.142857,48.1074518 477.142857,42.2067081 C477.142857,23.2751556 479.015725,0 483.136033,0 C484.484498,0 485.15873,1.55714069 485.15873,6.47442708 C485.15873,29.6676279 482.162142,49.0909091 479.090639,49.0909091 Z" id="20"></path>
                    <path d="M443.825041,112 C451.048305,112 454.577854,107.756549 454.577854,88.1201849 C454.577854,85.8736518 454.249524,83.6271186 453.100368,83.6271186 C452.689956,83.6271186 452.279543,83.8767334 452.279543,84.375963 C452.279543,85.540832 453.757029,86.1232666 453.757029,88.03698 C453.757029,89.9506934 452.033295,90.7827427 447.847086,90.7827427 C441.116317,90.7827427 436.437613,90.2835131 426.259378,90.2835131 C423.796902,90.2835131 419.85694,90.9491525 419.282362,90.9491525 C418.707784,90.9491525 418.379454,90.6995378 418.461537,90.2835131 C418.461537,90.0338983 418.789867,89.7010786 419.200279,89.5346687 C432.908063,84.1263482 456.301587,90.8659476 456.301587,72.2280431 C456.301587,61.4946071 449.652902,58 434.385549,58 C414.849905,58 408.119137,65.8212635 408.119137,75.8058552 C408.119137,81.96302 411.402438,85.7072419 418.625702,85.7072419 C424.371479,85.7072419 430.856,81.2973806 430.856,72.5608629 C430.856,68.1510015 428.968102,63.8243451 422.811911,63.8243451 C418.461537,63.8243451 417.476546,65.0724191 415.506565,65.0724191 C415.096152,65.0724191 414.849905,64.9060092 414.849905,64.5731895 C414.849905,62.9090909 418.789867,61.6610169 424.453562,61.6610169 C432.415568,61.6610169 436.109283,64.0739599 436.109283,70.3975347 C436.109283,80.6317411 429.296432,85.2912173 418.543619,88.2865948 C408.447467,91.1155624 405,95.2758089 405,102.348228 C405,107.922958 408.775797,112 416.081143,112 C422.976076,112 427.408533,109.004622 427.408533,102.348228 C427.408533,93.6117103 417.312381,95.1093991 417.558629,92.8628659 C417.558629,92.3636364 418.133206,91.9476117 419.118197,91.9476117 C431.020165,91.9476117 429.050184,112 443.825041,112 Z M478.608466,112 C496.240741,112 506,100.304147 506,79.6497696 C506,66.2949309 499.849206,58 483.365079,58 C461.386243,58 456.301587,70.9400922 456.301587,85.7050691 C456.301587,104.368664 465.322751,112 478.608466,112 Z M479.090639,107.090909 C477.966919,107.090909 477.142857,106.107452 477.142857,100.206708 C477.142857,81.2751556 479.015725,58 483.136033,58 C484.484498,58 485.15873,59.5571407 485.15873,64.4744271 C485.15873,87.6676279 482.162142,107.090909 479.090639,107.090909 Z" id="20"></path>
                    <path d="M38.8250413,54 C46.0483048,54 49.577854,49.7565485 49.577854,30.1201849 C49.577854,27.8736518 49.2495238,25.6271186 48.1003683,25.6271186 C47.6899556,25.6271186 47.2795429,25.8767334 47.2795429,26.375963 C47.2795429,27.540832 48.7570286,28.1232666 48.7570286,30.03698 C48.7570286,31.9506934 47.0332952,32.7827427 42.8470857,32.7827427 C36.1163175,32.7827427 31.4376127,32.2835131 21.2593778,32.2835131 C18.7969016,32.2835131 14.8569397,32.9491525 14.2823619,32.9491525 C13.7077841,32.9491525 13.379454,32.6995378 13.4615365,32.2835131 C13.4615365,32.0338983 13.7898667,31.7010786 14.2002794,31.5346687 C27.9080635,26.1263482 51.3015873,32.8659476 51.3015873,14.2280431 C51.3015873,3.49460709 44.6529016,0 29.3855492,0 C9.84990476,0 3.11913651,7.82126348 3.11913651,17.8058552 C3.11913651,23.96302 6.4024381,27.7072419 13.6257016,27.7072419 C19.3714794,27.7072419 25.856,23.2973806 25.856,14.5608629 C25.856,10.1510015 23.9681016,5.82434515 17.8119111,5.82434515 C13.4615365,5.82434515 12.476546,7.07241911 10.5065651,7.07241911 C10.0961524,7.07241911 9.84990476,6.90600924 9.84990476,6.57318952 C9.84990476,4.90909091 13.7898667,3.66101695 19.4535619,3.66101695 C27.4155683,3.66101695 31.1092825,6.07395994 31.1092825,12.3975347 C31.1092825,22.6317411 24.2964317,27.2912173 13.543619,30.2865948 C3.44746667,33.1155624 0,37.2758089 0,44.348228 C0,49.9229584 3.77579683,54 11.0811429,54 C17.9760762,54 22.4085333,51.0046225 22.4085333,44.348228 C22.4085333,35.6117103 12.312381,37.1093991 12.5586286,34.8628659 C12.5586286,34.3636364 13.1332063,33.9476117 14.1181968,33.9476117 C26.0201651,33.9476117 24.0501841,54 38.8250413,54 Z M73.6084656,54 C91.2407407,54 101,42.3041475 101,21.6497696 C101,8.29493088 94.8492063,0 78.3650794,0 C56.3862434,0 51.3015873,12.9400922 51.3015873,27.7050691 C51.3015873,46.3686636 60.3227513,54 73.6084656,54 Z M74.0906394,49.0909091 C72.9669189,49.0909091 72.1428571,48.1074518 72.1428571,42.2067081 C72.1428571,23.2751556 74.0157247,0 78.1360332,0 C79.4844978,0 80.1587302,1.55714069 80.1587302,6.47442708 C80.1587302,29.6676279 77.1621421,49.0909091 74.0906394,49.0909091 Z" id="20"></path>
                    <path d="M38.8250413,112 C46.0483048,112 49.577854,107.756549 49.577854,88.1201849 C49.577854,85.8736518 49.2495238,83.6271186 48.1003683,83.6271186 C47.6899556,83.6271186 47.2795429,83.8767334 47.2795429,84.375963 C47.2795429,85.540832 48.7570286,86.1232666 48.7570286,88.03698 C48.7570286,89.9506934 47.0332952,90.7827427 42.8470857,90.7827427 C36.1163175,90.7827427 31.4376127,90.2835131 21.2593778,90.2835131 C18.7969016,90.2835131 14.8569397,90.9491525 14.2823619,90.9491525 C13.7077841,90.9491525 13.379454,90.6995378 13.4615365,90.2835131 C13.4615365,90.0338983 13.7898667,89.7010786 14.2002794,89.5346687 C27.9080635,84.1263482 51.3015873,90.8659476 51.3015873,72.2280431 C51.3015873,61.4946071 44.6529016,58 29.3855492,58 C9.84990476,58 3.11913651,65.8212635 3.11913651,75.8058552 C3.11913651,81.96302 6.4024381,85.7072419 13.6257016,85.7072419 C19.3714794,85.7072419 25.856,81.2973806 25.856,72.5608629 C25.856,68.1510015 23.9681016,63.8243451 17.8119111,63.8243451 C13.4615365,63.8243451 12.476546,65.0724191 10.5065651,65.0724191 C10.0961524,65.0724191 9.84990476,64.9060092 9.84990476,64.5731895 C9.84990476,62.9090909 13.7898667,61.6610169 19.4535619,61.6610169 C27.4155683,61.6610169 31.1092825,64.0739599 31.1092825,70.3975347 C31.1092825,80.6317411 24.2964317,85.2912173 13.543619,88.2865948 C3.44746667,91.1155624 0,95.2758089 0,102.348228 C0,107.922958 3.77579683,112 11.0811429,112 C17.9760762,112 22.4085333,109.004622 22.4085333,102.348228 C22.4085333,93.6117103 12.312381,95.1093991 12.5586286,92.8628659 C12.5586286,92.3636364 13.1332063,91.9476117 14.1181968,91.9476117 C26.0201651,91.9476117 24.0501841,112 38.8250413,112 Z M73.6084656,112 C91.2407407,112 101,100.304147 101,79.6497696 C101,66.2949309 94.8492063,58 78.3650794,58 C56.3862434,58 51.3015873,70.9400922 51.3015873,85.7050691 C51.3015873,104.368664 60.3227513,112 73.6084656,112 Z M74.0906394,107.090909 C72.9669189,107.090909 72.1428571,106.107452 72.1428571,100.206708 C72.1428571,81.2751556 74.0157247,58 78.1360332,58 C79.4844978,58 80.1587302,59.5571407 80.1587302,64.4744271 C80.1587302,87.6676279 77.1621421,107.090909 74.0906394,107.090909 Z" id="20"></path>
                    <path d="M443.825041,168 C451.048305,168 454.577854,163.756549 454.577854,144.120185 C454.577854,141.873652 454.249524,139.627119 453.100368,139.627119 C452.689956,139.627119 452.279543,139.876733 452.279543,140.375963 C452.279543,141.540832 453.757029,142.123267 453.757029,144.03698 C453.757029,145.950693 452.033295,146.782743 447.847086,146.782743 C441.116317,146.782743 436.437613,146.283513 426.259378,146.283513 C423.796902,146.283513 419.85694,146.949153 419.282362,146.949153 C418.707784,146.949153 418.379454,146.699538 418.461537,146.283513 C418.461537,146.033898 418.789867,145.701079 419.200279,145.534669 C432.908063,140.126348 456.301587,146.865948 456.301587,128.228043 C456.301587,117.494607 449.652902,114 434.385549,114 C414.849905,114 408.119137,121.821263 408.119137,131.805855 C408.119137,137.96302 411.402438,141.707242 418.625702,141.707242 C424.371479,141.707242 430.856,137.297381 430.856,128.560863 C430.856,124.151002 428.968102,119.824345 422.811911,119.824345 C418.461537,119.824345 417.476546,121.072419 415.506565,121.072419 C415.096152,121.072419 414.849905,120.906009 414.849905,120.57319 C414.849905,118.909091 418.789867,117.661017 424.453562,117.661017 C432.415568,117.661017 436.109283,120.07396 436.109283,126.397535 C436.109283,136.631741 429.296432,141.291217 418.543619,144.286595 C408.447467,147.115562 405,151.275809 405,158.348228 C405,163.922958 408.775797,168 416.081143,168 C422.976076,168 427.408533,165.004622 427.408533,158.348228 C427.408533,149.61171 417.312381,151.109399 417.558629,148.862866 C417.558629,148.363636 418.133206,147.947612 419.118197,147.947612 C431.020165,147.947612 429.050184,168 443.825041,168 Z M478.608466,168 C496.240741,168 506,156.304147 506,135.64977 C506,122.294931 499.849206,114 483.365079,114 C461.386243,114 456.301587,126.940092 456.301587,141.705069 C456.301587,160.368664 465.322751,168 478.608466,168 Z M479.090639,163.090909 C477.966919,163.090909 477.142857,162.107452 477.142857,156.206708 C477.142857,137.275156 479.015725,114 483.136033,114 C484.484498,114 485.15873,115.557141 485.15873,120.474427 C485.15873,143.667628 482.162142,163.090909 479.090639,163.090909 Z" id="20"></path>
                    <path d="M443.825041,226 C451.048305,226 454.577854,221.756549 454.577854,202.120185 C454.577854,199.873652 454.249524,197.627119 453.100368,197.627119 C452.689956,197.627119 452.279543,197.876733 452.279543,198.375963 C452.279543,199.540832 453.757029,200.123267 453.757029,202.03698 C453.757029,203.950693 452.033295,204.782743 447.847086,204.782743 C441.116317,204.782743 436.437613,204.283513 426.259378,204.283513 C423.796902,204.283513 419.85694,204.949153 419.282362,204.949153 C418.707784,204.949153 418.379454,204.699538 418.461537,204.283513 C418.461537,204.033898 418.789867,203.701079 419.200279,203.534669 C432.908063,198.126348 456.301587,204.865948 456.301587,186.228043 C456.301587,175.494607 449.652902,172 434.385549,172 C414.849905,172 408.119137,179.821263 408.119137,189.805855 C408.119137,195.96302 411.402438,199.707242 418.625702,199.707242 C424.371479,199.707242 430.856,195.297381 430.856,186.560863 C430.856,182.151002 428.968102,177.824345 422.811911,177.824345 C418.461537,177.824345 417.476546,179.072419 415.506565,179.072419 C415.096152,179.072419 414.849905,178.906009 414.849905,178.57319 C414.849905,176.909091 418.789867,175.661017 424.453562,175.661017 C432.415568,175.661017 436.109283,178.07396 436.109283,184.397535 C436.109283,194.631741 429.296432,199.291217 418.543619,202.286595 C408.447467,205.115562 405,209.275809 405,216.348228 C405,221.922958 408.775797,226 416.081143,226 C422.976076,226 427.408533,223.004622 427.408533,216.348228 C427.408533,207.61171 417.312381,209.109399 417.558629,206.862866 C417.558629,206.363636 418.133206,205.947612 419.118197,205.947612 C431.020165,205.947612 429.050184,226 443.825041,226 Z M478.608466,226 C496.240741,226 506,214.304147 506,193.64977 C506,180.294931 499.849206,172 483.365079,172 C461.386243,172 456.301587,184.940092 456.301587,199.705069 C456.301587,218.368664 465.322751,226 478.608466,226 Z M479.090639,221.090909 C477.966919,221.090909 477.142857,220.107452 477.142857,214.206708 C477.142857,195.275156 479.015725,172 483.136033,172 C484.484498,172 485.15873,173.557141 485.15873,178.474427 C485.15873,201.667628 482.162142,221.090909 479.090639,221.090909 Z" id="20-copy-2"></path>
                    <path d="M38.8250413,168 C46.0483048,168 49.577854,163.756549 49.577854,144.120185 C49.577854,141.873652 49.2495238,139.627119 48.1003683,139.627119 C47.6899556,139.627119 47.2795429,139.876733 47.2795429,140.375963 C47.2795429,141.540832 48.7570286,142.123267 48.7570286,144.03698 C48.7570286,145.950693 47.0332952,146.782743 42.8470857,146.782743 C36.1163175,146.782743 31.4376127,146.283513 21.2593778,146.283513 C18.7969016,146.283513 14.8569397,146.949153 14.2823619,146.949153 C13.7077841,146.949153 13.379454,146.699538 13.4615365,146.283513 C13.4615365,146.033898 13.7898667,145.701079 14.2002794,145.534669 C27.9080635,140.126348 51.3015873,146.865948 51.3015873,128.228043 C51.3015873,117.494607 44.6529016,114 29.3855492,114 C9.84990476,114 3.11913651,121.821263 3.11913651,131.805855 C3.11913651,137.96302 6.4024381,141.707242 13.6257016,141.707242 C19.3714794,141.707242 25.856,137.297381 25.856,128.560863 C25.856,124.151002 23.9681016,119.824345 17.8119111,119.824345 C13.4615365,119.824345 12.476546,121.072419 10.5065651,121.072419 C10.0961524,121.072419 9.84990476,120.906009 9.84990476,120.57319 C9.84990476,118.909091 13.7898667,117.661017 19.4535619,117.661017 C27.4155683,117.661017 31.1092825,120.07396 31.1092825,126.397535 C31.1092825,136.631741 24.2964317,141.291217 13.543619,144.286595 C3.44746667,147.115562 0,151.275809 0,158.348228 C0,163.922958 3.77579683,168 11.0811429,168 C17.9760762,168 22.4085333,165.004622 22.4085333,158.348228 C22.4085333,149.61171 12.312381,151.109399 12.5586286,148.862866 C12.5586286,148.363636 13.1332063,147.947612 14.1181968,147.947612 C26.0201651,147.947612 24.0501841,168 38.8250413,168 Z M73.6084656,168 C91.2407407,168 101,156.304147 101,135.64977 C101,122.294931 94.8492063,114 78.3650794,114 C56.3862434,114 51.3015873,126.940092 51.3015873,141.705069 C51.3015873,160.368664 60.3227513,168 73.6084656,168 Z M74.0906394,163.090909 C72.9669189,163.090909 72.1428571,162.107452 72.1428571,156.206708 C72.1428571,137.275156 74.0157247,114 78.1360332,114 C79.4844978,114 80.1587302,115.557141 80.1587302,120.474427 C80.1587302,143.667628 77.1621421,163.090909 74.0906394,163.090909 Z" id="20"></path>
                    <path d="M38.8250413,226 C46.0483048,226 49.577854,221.756549 49.577854,202.120185 C49.577854,199.873652 49.2495238,197.627119 48.1003683,197.627119 C47.6899556,197.627119 47.2795429,197.876733 47.2795429,198.375963 C47.2795429,199.540832 48.7570286,200.123267 48.7570286,202.03698 C48.7570286,203.950693 47.0332952,204.782743 42.8470857,204.782743 C36.1163175,204.782743 31.4376127,204.283513 21.2593778,204.283513 C18.7969016,204.283513 14.8569397,204.949153 14.2823619,204.949153 C13.7077841,204.949153 13.379454,204.699538 13.4615365,204.283513 C13.4615365,204.033898 13.7898667,203.701079 14.2002794,203.534669 C27.9080635,198.126348 51.3015873,204.865948 51.3015873,186.228043 C51.3015873,175.494607 44.6529016,172 29.3855492,172 C9.84990476,172 3.11913651,179.821263 3.11913651,189.805855 C3.11913651,195.96302 6.4024381,199.707242 13.6257016,199.707242 C19.3714794,199.707242 25.856,195.297381 25.856,186.560863 C25.856,182.151002 23.9681016,177.824345 17.8119111,177.824345 C13.4615365,177.824345 12.476546,179.072419 10.5065651,179.072419 C10.0961524,179.072419 9.84990476,178.906009 9.84990476,178.57319 C9.84990476,176.909091 13.7898667,175.661017 19.4535619,175.661017 C27.4155683,175.661017 31.1092825,178.07396 31.1092825,184.397535 C31.1092825,194.631741 24.2964317,199.291217 13.543619,202.286595 C3.44746667,205.115562 0,209.275809 0,216.348228 C0,221.922958 3.77579683,226 11.0811429,226 C17.9760762,226 22.4085333,223.004622 22.4085333,216.348228 C22.4085333,207.61171 12.312381,209.109399 12.5586286,206.862866 C12.5586286,206.363636 13.1332063,205.947612 14.1181968,205.947612 C26.0201651,205.947612 24.0501841,226 38.8250413,226 Z M73.6084656,226 C91.2407407,226 101,214.304147 101,193.64977 C101,180.294931 94.8492063,172 78.3650794,172 C56.3862434,172 51.3015873,184.940092 51.3015873,199.705069 C51.3015873,218.368664 60.3227513,226 73.6084656,226 Z M74.0906394,221.090909 C72.9669189,221.090909 72.1428571,220.107452 72.1428571,214.206708 C72.1428571,195.275156 74.0157247,172 78.1360332,172 C79.4844978,172 80.1587302,173.557141 80.1587302,178.474427 C80.1587302,201.667628 77.1621421,221.090909 74.0906394,221.090909 Z" id="20-copy-3"></path>
                    <path d="M543.825041,54 C551.048305,54 554.577854,49.7565485 554.577854,30.1201849 C554.577854,27.8736518 554.249524,25.6271186 553.100368,25.6271186 C552.689956,25.6271186 552.279543,25.8767334 552.279543,26.375963 C552.279543,27.540832 553.757029,28.1232666 553.757029,30.03698 C553.757029,31.9506934 552.033295,32.7827427 547.847086,32.7827427 C541.116317,32.7827427 536.437613,32.2835131 526.259378,32.2835131 C523.796902,32.2835131 519.85694,32.9491525 519.282362,32.9491525 C518.707784,32.9491525 518.379454,32.6995378 518.461537,32.2835131 C518.461537,32.0338983 518.789867,31.7010786 519.200279,31.5346687 C532.908063,26.1263482 556.301587,32.8659476 556.301587,14.2280431 C556.301587,3.49460709 549.652902,0 534.385549,0 C514.849905,0 508.119137,7.82126348 508.119137,17.8058552 C508.119137,23.96302 511.402438,27.7072419 518.625702,27.7072419 C524.371479,27.7072419 530.856,23.2973806 530.856,14.5608629 C530.856,10.1510015 528.968102,5.82434515 522.811911,5.82434515 C518.461537,5.82434515 517.476546,7.07241911 515.506565,7.07241911 C515.096152,7.07241911 514.849905,6.90600924 514.849905,6.57318952 C514.849905,4.90909091 518.789867,3.66101695 524.453562,3.66101695 C532.415568,3.66101695 536.109283,6.07395994 536.109283,12.3975347 C536.109283,22.6317411 529.296432,27.2912173 518.543619,30.2865948 C508.447467,33.1155624 505,37.2758089 505,44.348228 C505,49.9229584 508.775797,54 516.081143,54 C522.976076,54 527.408533,51.0046225 527.408533,44.348228 C527.408533,35.6117103 517.312381,37.1093991 517.558629,34.8628659 C517.558629,34.3636364 518.133206,33.9476117 519.118197,33.9476117 C531.020165,33.9476117 529.050184,54 543.825041,54 Z M578.608466,54 C596.240741,54 606,42.3041475 606,21.6497696 C606,8.29493088 599.849206,0 583.365079,0 C561.386243,0 556.301587,12.9400922 556.301587,27.7050691 C556.301587,46.3686636 565.322751,54 578.608466,54 Z M579.090639,49.0909091 C577.966919,49.0909091 577.142857,48.1074518 577.142857,42.2067081 C577.142857,23.2751556 579.015725,0 583.136033,0 C584.484498,0 585.15873,1.55714069 585.15873,6.47442708 C585.15873,29.6676279 582.162142,49.0909091 579.090639,49.0909091 Z" id="20"></path>
                    <path d="M543.825041,112 C551.048305,112 554.577854,107.756549 554.577854,88.1201849 C554.577854,85.8736518 554.249524,83.6271186 553.100368,83.6271186 C552.689956,83.6271186 552.279543,83.8767334 552.279543,84.375963 C552.279543,85.540832 553.757029,86.1232666 553.757029,88.03698 C553.757029,89.9506934 552.033295,90.7827427 547.847086,90.7827427 C541.116317,90.7827427 536.437613,90.2835131 526.259378,90.2835131 C523.796902,90.2835131 519.85694,90.9491525 519.282362,90.9491525 C518.707784,90.9491525 518.379454,90.6995378 518.461537,90.2835131 C518.461537,90.0338983 518.789867,89.7010786 519.200279,89.5346687 C532.908063,84.1263482 556.301587,90.8659476 556.301587,72.2280431 C556.301587,61.4946071 549.652902,58 534.385549,58 C514.849905,58 508.119137,65.8212635 508.119137,75.8058552 C508.119137,81.96302 511.402438,85.7072419 518.625702,85.7072419 C524.371479,85.7072419 530.856,81.2973806 530.856,72.5608629 C530.856,68.1510015 528.968102,63.8243451 522.811911,63.8243451 C518.461537,63.8243451 517.476546,65.0724191 515.506565,65.0724191 C515.096152,65.0724191 514.849905,64.9060092 514.849905,64.5731895 C514.849905,62.9090909 518.789867,61.6610169 524.453562,61.6610169 C532.415568,61.6610169 536.109283,64.0739599 536.109283,70.3975347 C536.109283,80.6317411 529.296432,85.2912173 518.543619,88.2865948 C508.447467,91.1155624 505,95.2758089 505,102.348228 C505,107.922958 508.775797,112 516.081143,112 C522.976076,112 527.408533,109.004622 527.408533,102.348228 C527.408533,93.6117103 517.312381,95.1093991 517.558629,92.8628659 C517.558629,92.3636364 518.133206,91.9476117 519.118197,91.9476117 C531.020165,91.9476117 529.050184,112 543.825041,112 Z M578.608466,112 C596.240741,112 606,100.304147 606,79.6497696 C606,66.2949309 599.849206,58 583.365079,58 C561.386243,58 556.301587,70.9400922 556.301587,85.7050691 C556.301587,104.368664 565.322751,112 578.608466,112 Z M579.090639,107.090909 C577.966919,107.090909 577.142857,106.107452 577.142857,100.206708 C577.142857,81.2751556 579.015725,58 583.136033,58 C584.484498,58 585.15873,59.5571407 585.15873,64.4744271 C585.15873,87.6676279 582.162142,107.090909 579.090639,107.090909 Z" id="20"></path>
                    <path d="M139.825041,54 C147.048305,54 150.577854,49.7565485 150.577854,30.1201849 C150.577854,27.8736518 150.249524,25.6271186 149.100368,25.6271186 C148.689956,25.6271186 148.279543,25.8767334 148.279543,26.375963 C148.279543,27.540832 149.757029,28.1232666 149.757029,30.03698 C149.757029,31.9506934 148.033295,32.7827427 143.847086,32.7827427 C137.116317,32.7827427 132.437613,32.2835131 122.259378,32.2835131 C119.796902,32.2835131 115.85694,32.9491525 115.282362,32.9491525 C114.707784,32.9491525 114.379454,32.6995378 114.461537,32.2835131 C114.461537,32.0338983 114.789867,31.7010786 115.200279,31.5346687 C128.908063,26.1263482 152.301587,32.8659476 152.301587,14.2280431 C152.301587,3.49460709 145.652902,0 130.385549,0 C110.849905,0 104.119137,7.82126348 104.119137,17.8058552 C104.119137,23.96302 107.402438,27.7072419 114.625702,27.7072419 C120.371479,27.7072419 126.856,23.2973806 126.856,14.5608629 C126.856,10.1510015 124.968102,5.82434515 118.811911,5.82434515 C114.461537,5.82434515 113.476546,7.07241911 111.506565,7.07241911 C111.096152,7.07241911 110.849905,6.90600924 110.849905,6.57318952 C110.849905,4.90909091 114.789867,3.66101695 120.453562,3.66101695 C128.415568,3.66101695 132.109283,6.07395994 132.109283,12.3975347 C132.109283,22.6317411 125.296432,27.2912173 114.543619,30.2865948 C104.447467,33.1155624 101,37.2758089 101,44.348228 C101,49.9229584 104.775797,54 112.081143,54 C118.976076,54 123.408533,51.0046225 123.408533,44.348228 C123.408533,35.6117103 113.312381,37.1093991 113.558629,34.8628659 C113.558629,34.3636364 114.133206,33.9476117 115.118197,33.9476117 C127.020165,33.9476117 125.050184,54 139.825041,54 Z M174.608466,54 C192.240741,54 202,42.3041475 202,21.6497696 C202,8.29493088 195.849206,0 179.365079,0 C157.386243,0 152.301587,12.9400922 152.301587,27.7050691 C152.301587,46.3686636 161.322751,54 174.608466,54 Z M175.090639,49.0909091 C173.966919,49.0909091 173.142857,48.1074518 173.142857,42.2067081 C173.142857,23.2751556 175.015725,0 179.136033,0 C180.484498,0 181.15873,1.55714069 181.15873,6.47442708 C181.15873,29.6676279 178.162142,49.0909091 175.090639,49.0909091 Z" id="20"></path>
                    <path d="M139.825041,112 C147.048305,112 150.577854,107.756549 150.577854,88.1201849 C150.577854,85.8736518 150.249524,83.6271186 149.100368,83.6271186 C148.689956,83.6271186 148.279543,83.8767334 148.279543,84.375963 C148.279543,85.540832 149.757029,86.1232666 149.757029,88.03698 C149.757029,89.9506934 148.033295,90.7827427 143.847086,90.7827427 C137.116317,90.7827427 132.437613,90.2835131 122.259378,90.2835131 C119.796902,90.2835131 115.85694,90.9491525 115.282362,90.9491525 C114.707784,90.9491525 114.379454,90.6995378 114.461537,90.2835131 C114.461537,90.0338983 114.789867,89.7010786 115.200279,89.5346687 C128.908063,84.1263482 152.301587,90.8659476 152.301587,72.2280431 C152.301587,61.4946071 145.652902,58 130.385549,58 C110.849905,58 104.119137,65.8212635 104.119137,75.8058552 C104.119137,81.96302 107.402438,85.7072419 114.625702,85.7072419 C120.371479,85.7072419 126.856,81.2973806 126.856,72.5608629 C126.856,68.1510015 124.968102,63.8243451 118.811911,63.8243451 C114.461537,63.8243451 113.476546,65.0724191 111.506565,65.0724191 C111.096152,65.0724191 110.849905,64.9060092 110.849905,64.5731895 C110.849905,62.9090909 114.789867,61.6610169 120.453562,61.6610169 C128.415568,61.6610169 132.109283,64.0739599 132.109283,70.3975347 C132.109283,80.6317411 125.296432,85.2912173 114.543619,88.2865948 C104.447467,91.1155624 101,95.2758089 101,102.348228 C101,107.922958 104.775797,112 112.081143,112 C118.976076,112 123.408533,109.004622 123.408533,102.348228 C123.408533,93.6117103 113.312381,95.1093991 113.558629,92.8628659 C113.558629,92.3636364 114.133206,91.9476117 115.118197,91.9476117 C127.020165,91.9476117 125.050184,112 139.825041,112 Z M174.608466,112 C192.240741,112 202,100.304147 202,79.6497696 C202,66.2949309 195.849206,58 179.365079,58 C157.386243,58 152.301587,70.9400922 152.301587,85.7050691 C152.301587,104.368664 161.322751,112 174.608466,112 Z M175.090639,107.090909 C173.966919,107.090909 173.142857,106.107452 173.142857,100.206708 C173.142857,81.2751556 175.015725,58 179.136033,58 C180.484498,58 181.15873,59.5571407 181.15873,64.4744271 C181.15873,87.6676279 178.162142,107.090909 175.090639,107.090909 Z" id="20"></path>
                    <path d="M543.825041,168 C551.048305,168 554.577854,163.756549 554.577854,144.120185 C554.577854,141.873652 554.249524,139.627119 553.100368,139.627119 C552.689956,139.627119 552.279543,139.876733 552.279543,140.375963 C552.279543,141.540832 553.757029,142.123267 553.757029,144.03698 C553.757029,145.950693 552.033295,146.782743 547.847086,146.782743 C541.116317,146.782743 536.437613,146.283513 526.259378,146.283513 C523.796902,146.283513 519.85694,146.949153 519.282362,146.949153 C518.707784,146.949153 518.379454,146.699538 518.461537,146.283513 C518.461537,146.033898 518.789867,145.701079 519.200279,145.534669 C532.908063,140.126348 556.301587,146.865948 556.301587,128.228043 C556.301587,117.494607 549.652902,114 534.385549,114 C514.849905,114 508.119137,121.821263 508.119137,131.805855 C508.119137,137.96302 511.402438,141.707242 518.625702,141.707242 C524.371479,141.707242 530.856,137.297381 530.856,128.560863 C530.856,124.151002 528.968102,119.824345 522.811911,119.824345 C518.461537,119.824345 517.476546,121.072419 515.506565,121.072419 C515.096152,121.072419 514.849905,120.906009 514.849905,120.57319 C514.849905,118.909091 518.789867,117.661017 524.453562,117.661017 C532.415568,117.661017 536.109283,120.07396 536.109283,126.397535 C536.109283,136.631741 529.296432,141.291217 518.543619,144.286595 C508.447467,147.115562 505,151.275809 505,158.348228 C505,163.922958 508.775797,168 516.081143,168 C522.976076,168 527.408533,165.004622 527.408533,158.348228 C527.408533,149.61171 517.312381,151.109399 517.558629,148.862866 C517.558629,148.363636 518.133206,147.947612 519.118197,147.947612 C531.020165,147.947612 529.050184,168 543.825041,168 Z M578.608466,168 C596.240741,168 606,156.304147 606,135.64977 C606,122.294931 599.849206,114 583.365079,114 C561.386243,114 556.301587,126.940092 556.301587,141.705069 C556.301587,160.368664 565.322751,168 578.608466,168 Z M579.090639,163.090909 C577.966919,163.090909 577.142857,162.107452 577.142857,156.206708 C577.142857,137.275156 579.015725,114 583.136033,114 C584.484498,114 585.15873,115.557141 585.15873,120.474427 C585.15873,143.667628 582.162142,163.090909 579.090639,163.090909 Z" id="20"></path>
                    <path d="M543.825041,226 C551.048305,226 554.577854,221.756549 554.577854,202.120185 C554.577854,199.873652 554.249524,197.627119 553.100368,197.627119 C552.689956,197.627119 552.279543,197.876733 552.279543,198.375963 C552.279543,199.540832 553.757029,200.123267 553.757029,202.03698 C553.757029,203.950693 552.033295,204.782743 547.847086,204.782743 C541.116317,204.782743 536.437613,204.283513 526.259378,204.283513 C523.796902,204.283513 519.85694,204.949153 519.282362,204.949153 C518.707784,204.949153 518.379454,204.699538 518.461537,204.283513 C518.461537,204.033898 518.789867,203.701079 519.200279,203.534669 C532.908063,198.126348 556.301587,204.865948 556.301587,186.228043 C556.301587,175.494607 549.652902,172 534.385549,172 C514.849905,172 508.119137,179.821263 508.119137,189.805855 C508.119137,195.96302 511.402438,199.707242 518.625702,199.707242 C524.371479,199.707242 530.856,195.297381 530.856,186.560863 C530.856,182.151002 528.968102,177.824345 522.811911,177.824345 C518.461537,177.824345 517.476546,179.072419 515.506565,179.072419 C515.096152,179.072419 514.849905,178.906009 514.849905,178.57319 C514.849905,176.909091 518.789867,175.661017 524.453562,175.661017 C532.415568,175.661017 536.109283,178.07396 536.109283,184.397535 C536.109283,194.631741 529.296432,199.291217 518.543619,202.286595 C508.447467,205.115562 505,209.275809 505,216.348228 C505,221.922958 508.775797,226 516.081143,226 C522.976076,226 527.408533,223.004622 527.408533,216.348228 C527.408533,207.61171 517.312381,209.109399 517.558629,206.862866 C517.558629,206.363636 518.133206,205.947612 519.118197,205.947612 C531.020165,205.947612 529.050184,226 543.825041,226 Z M578.608466,226 C596.240741,226 606,214.304147 606,193.64977 C606,180.294931 599.849206,172 583.365079,172 C561.386243,172 556.301587,184.940092 556.301587,199.705069 C556.301587,218.368664 565.322751,226 578.608466,226 Z M579.090639,221.090909 C577.966919,221.090909 577.142857,220.107452 577.142857,214.206708 C577.142857,195.275156 579.015725,172 583.136033,172 C584.484498,172 585.15873,173.557141 585.15873,178.474427 C585.15873,201.667628 582.162142,221.090909 579.090639,221.090909 Z" id="20-copy-4"></path>
                    <path d="M139.825041,168 C147.048305,168 150.577854,163.756549 150.577854,144.120185 C150.577854,141.873652 150.249524,139.627119 149.100368,139.627119 C148.689956,139.627119 148.279543,139.876733 148.279543,140.375963 C148.279543,141.540832 149.757029,142.123267 149.757029,144.03698 C149.757029,145.950693 148.033295,146.782743 143.847086,146.782743 C137.116317,146.782743 132.437613,146.283513 122.259378,146.283513 C119.796902,146.283513 115.85694,146.949153 115.282362,146.949153 C114.707784,146.949153 114.379454,146.699538 114.461537,146.283513 C114.461537,146.033898 114.789867,145.701079 115.200279,145.534669 C128.908063,140.126348 152.301587,146.865948 152.301587,128.228043 C152.301587,117.494607 145.652902,114 130.385549,114 C110.849905,114 104.119137,121.821263 104.119137,131.805855 C104.119137,137.96302 107.402438,141.707242 114.625702,141.707242 C120.371479,141.707242 126.856,137.297381 126.856,128.560863 C126.856,124.151002 124.968102,119.824345 118.811911,119.824345 C114.461537,119.824345 113.476546,121.072419 111.506565,121.072419 C111.096152,121.072419 110.849905,120.906009 110.849905,120.57319 C110.849905,118.909091 114.789867,117.661017 120.453562,117.661017 C128.415568,117.661017 132.109283,120.07396 132.109283,126.397535 C132.109283,136.631741 125.296432,141.291217 114.543619,144.286595 C104.447467,147.115562 101,151.275809 101,158.348228 C101,163.922958 104.775797,168 112.081143,168 C118.976076,168 123.408533,165.004622 123.408533,158.348228 C123.408533,149.61171 113.312381,151.109399 113.558629,148.862866 C113.558629,148.363636 114.133206,147.947612 115.118197,147.947612 C127.020165,147.947612 125.050184,168 139.825041,168 Z M174.608466,168 C192.240741,168 202,156.304147 202,135.64977 C202,122.294931 195.849206,114 179.365079,114 C157.386243,114 152.301587,126.940092 152.301587,141.705069 C152.301587,160.368664 161.322751,168 174.608466,168 Z M175.090639,163.090909 C173.966919,163.090909 173.142857,162.107452 173.142857,156.206708 C173.142857,137.275156 175.015725,114 179.136033,114 C180.484498,114 181.15873,115.557141 181.15873,120.474427 C181.15873,143.667628 178.162142,163.090909 175.090639,163.090909 Z" id="20"></path>
                    <path d="M139.825041,226 C147.048305,226 150.577854,221.756549 150.577854,202.120185 C150.577854,199.873652 150.249524,197.627119 149.100368,197.627119 C148.689956,197.627119 148.279543,197.876733 148.279543,198.375963 C148.279543,199.540832 149.757029,200.123267 149.757029,202.03698 C149.757029,203.950693 148.033295,204.782743 143.847086,204.782743 C137.116317,204.782743 132.437613,204.283513 122.259378,204.283513 C119.796902,204.283513 115.85694,204.949153 115.282362,204.949153 C114.707784,204.949153 114.379454,204.699538 114.461537,204.283513 C114.461537,204.033898 114.789867,203.701079 115.200279,203.534669 C128.908063,198.126348 152.301587,204.865948 152.301587,186.228043 C152.301587,175.494607 145.652902,172 130.385549,172 C110.849905,172 104.119137,179.821263 104.119137,189.805855 C104.119137,195.96302 107.402438,199.707242 114.625702,199.707242 C120.371479,199.707242 126.856,195.297381 126.856,186.560863 C126.856,182.151002 124.968102,177.824345 118.811911,177.824345 C114.461537,177.824345 113.476546,179.072419 111.506565,179.072419 C111.096152,179.072419 110.849905,178.906009 110.849905,178.57319 C110.849905,176.909091 114.789867,175.661017 120.453562,175.661017 C128.415568,175.661017 132.109283,178.07396 132.109283,184.397535 C132.109283,194.631741 125.296432,199.291217 114.543619,202.286595 C104.447467,205.115562 101,209.275809 101,216.348228 C101,221.922958 104.775797,226 112.081143,226 C118.976076,226 123.408533,223.004622 123.408533,216.348228 C123.408533,207.61171 113.312381,209.109399 113.558629,206.862866 C113.558629,206.363636 114.133206,205.947612 115.118197,205.947612 C127.020165,205.947612 125.050184,226 139.825041,226 Z M174.608466,226 C192.240741,226 202,214.304147 202,193.64977 C202,180.294931 195.849206,172 179.365079,172 C157.386243,172 152.301587,184.940092 152.301587,199.705069 C152.301587,218.368664 161.322751,226 174.608466,226 Z M175.090639,221.090909 C173.966919,221.090909 173.142857,220.107452 173.142857,214.206708 C173.142857,195.275156 175.015725,172 179.136033,172 C180.484498,172 181.15873,173.557141 181.15873,178.474427 C181.15873,201.667628 178.162142,221.090909 175.090639,221.090909 Z" id="20-copy-5"></path>
                    <path d="M645.825041,54 C653.048305,54 656.577854,49.7565485 656.577854,30.1201849 C656.577854,27.8736518 656.249524,25.6271186 655.100368,25.6271186 C654.689956,25.6271186 654.279543,25.8767334 654.279543,26.375963 C654.279543,27.540832 655.757029,28.1232666 655.757029,30.03698 C655.757029,31.9506934 654.033295,32.7827427 649.847086,32.7827427 C643.116317,32.7827427 638.437613,32.2835131 628.259378,32.2835131 C625.796902,32.2835131 621.85694,32.9491525 621.282362,32.9491525 C620.707784,32.9491525 620.379454,32.6995378 620.461537,32.2835131 C620.461537,32.0338983 620.789867,31.7010786 621.200279,31.5346687 C634.908063,26.1263482 658.301587,32.8659476 658.301587,14.2280431 C658.301587,3.49460709 651.652902,0 636.385549,0 C616.849905,0 610.119137,7.82126348 610.119137,17.8058552 C610.119137,23.96302 613.402438,27.7072419 620.625702,27.7072419 C626.371479,27.7072419 632.856,23.2973806 632.856,14.5608629 C632.856,10.1510015 630.968102,5.82434515 624.811911,5.82434515 C620.461537,5.82434515 619.476546,7.07241911 617.506565,7.07241911 C617.096152,7.07241911 616.849905,6.90600924 616.849905,6.57318952 C616.849905,4.90909091 620.789867,3.66101695 626.453562,3.66101695 C634.415568,3.66101695 638.109283,6.07395994 638.109283,12.3975347 C638.109283,22.6317411 631.296432,27.2912173 620.543619,30.2865948 C610.447467,33.1155624 607,37.2758089 607,44.348228 C607,49.9229584 610.775797,54 618.081143,54 C624.976076,54 629.408533,51.0046225 629.408533,44.348228 C629.408533,35.6117103 619.312381,37.1093991 619.558629,34.8628659 C619.558629,34.3636364 620.133206,33.9476117 621.118197,33.9476117 C633.020165,33.9476117 631.050184,54 645.825041,54 Z M680.608466,54 C698.240741,54 708,42.3041475 708,21.6497696 C708,8.29493088 701.849206,0 685.365079,0 C663.386243,0 658.301587,12.9400922 658.301587,27.7050691 C658.301587,46.3686636 667.322751,54 680.608466,54 Z M681.090639,49.0909091 C679.966919,49.0909091 679.142857,48.1074518 679.142857,42.2067081 C679.142857,23.2751556 681.015725,0 685.136033,0 C686.484498,0 687.15873,1.55714069 687.15873,6.47442708 C687.15873,29.6676279 684.162142,49.0909091 681.090639,49.0909091 Z" id="20"></path>
                    <path d="M645.825041,112 C653.048305,112 656.577854,107.756549 656.577854,88.1201849 C656.577854,85.8736518 656.249524,83.6271186 655.100368,83.6271186 C654.689956,83.6271186 654.279543,83.8767334 654.279543,84.375963 C654.279543,85.540832 655.757029,86.1232666 655.757029,88.03698 C655.757029,89.9506934 654.033295,90.7827427 649.847086,90.7827427 C643.116317,90.7827427 638.437613,90.2835131 628.259378,90.2835131 C625.796902,90.2835131 621.85694,90.9491525 621.282362,90.9491525 C620.707784,90.9491525 620.379454,90.6995378 620.461537,90.2835131 C620.461537,90.0338983 620.789867,89.7010786 621.200279,89.5346687 C634.908063,84.1263482 658.301587,90.8659476 658.301587,72.2280431 C658.301587,61.4946071 651.652902,58 636.385549,58 C616.849905,58 610.119137,65.8212635 610.119137,75.8058552 C610.119137,81.96302 613.402438,85.7072419 620.625702,85.7072419 C626.371479,85.7072419 632.856,81.2973806 632.856,72.5608629 C632.856,68.1510015 630.968102,63.8243451 624.811911,63.8243451 C620.461537,63.8243451 619.476546,65.0724191 617.506565,65.0724191 C617.096152,65.0724191 616.849905,64.9060092 616.849905,64.5731895 C616.849905,62.9090909 620.789867,61.6610169 626.453562,61.6610169 C634.415568,61.6610169 638.109283,64.0739599 638.109283,70.3975347 C638.109283,80.6317411 631.296432,85.2912173 620.543619,88.2865948 C610.447467,91.1155624 607,95.2758089 607,102.348228 C607,107.922958 610.775797,112 618.081143,112 C624.976076,112 629.408533,109.004622 629.408533,102.348228 C629.408533,93.6117103 619.312381,95.1093991 619.558629,92.8628659 C619.558629,92.3636364 620.133206,91.9476117 621.118197,91.9476117 C633.020165,91.9476117 631.050184,112 645.825041,112 Z M680.608466,112 C698.240741,112 708,100.304147 708,79.6497696 C708,66.2949309 701.849206,58 685.365079,58 C663.386243,58 658.301587,70.9400922 658.301587,85.7050691 C658.301587,104.368664 667.322751,112 680.608466,112 Z M681.090639,107.090909 C679.966919,107.090909 679.142857,106.107452 679.142857,100.206708 C679.142857,81.2751556 681.015725,58 685.136033,58 C686.484498,58 687.15873,59.5571407 687.15873,64.4744271 C687.15873,87.6676279 684.162142,107.090909 681.090639,107.090909 Z" id="20"></path>
                    <path d="M241.825041,54 C249.048305,54 252.577854,49.7565485 252.577854,30.1201849 C252.577854,27.8736518 252.249524,25.6271186 251.100368,25.6271186 C250.689956,25.6271186 250.279543,25.8767334 250.279543,26.375963 C250.279543,27.540832 251.757029,28.1232666 251.757029,30.03698 C251.757029,31.9506934 250.033295,32.7827427 245.847086,32.7827427 C239.116317,32.7827427 234.437613,32.2835131 224.259378,32.2835131 C221.796902,32.2835131 217.85694,32.9491525 217.282362,32.9491525 C216.707784,32.9491525 216.379454,32.6995378 216.461537,32.2835131 C216.461537,32.0338983 216.789867,31.7010786 217.200279,31.5346687 C230.908063,26.1263482 254.301587,32.8659476 254.301587,14.2280431 C254.301587,3.49460709 247.652902,0 232.385549,0 C212.849905,0 206.119137,7.82126348 206.119137,17.8058552 C206.119137,23.96302 209.402438,27.7072419 216.625702,27.7072419 C222.371479,27.7072419 228.856,23.2973806 228.856,14.5608629 C228.856,10.1510015 226.968102,5.82434515 220.811911,5.82434515 C216.461537,5.82434515 215.476546,7.07241911 213.506565,7.07241911 C213.096152,7.07241911 212.849905,6.90600924 212.849905,6.57318952 C212.849905,4.90909091 216.789867,3.66101695 222.453562,3.66101695 C230.415568,3.66101695 234.109283,6.07395994 234.109283,12.3975347 C234.109283,22.6317411 227.296432,27.2912173 216.543619,30.2865948 C206.447467,33.1155624 203,37.2758089 203,44.348228 C203,49.9229584 206.775797,54 214.081143,54 C220.976076,54 225.408533,51.0046225 225.408533,44.348228 C225.408533,35.6117103 215.312381,37.1093991 215.558629,34.8628659 C215.558629,34.3636364 216.133206,33.9476117 217.118197,33.9476117 C229.020165,33.9476117 227.050184,54 241.825041,54 Z M276.608466,54 C294.240741,54 304,42.3041475 304,21.6497696 C304,8.29493088 297.849206,0 281.365079,0 C259.386243,0 254.301587,12.9400922 254.301587,27.7050691 C254.301587,46.3686636 263.322751,54 276.608466,54 Z M277.090639,49.0909091 C275.966919,49.0909091 275.142857,48.1074518 275.142857,42.2067081 C275.142857,23.2751556 277.015725,0 281.136033,0 C282.484498,0 283.15873,1.55714069 283.15873,6.47442708 C283.15873,29.6676279 280.162142,49.0909091 277.090639,49.0909091 Z" id="20"></path>
                    <path d="M241.825041,112 C249.048305,112 252.577854,107.756549 252.577854,88.1201849 C252.577854,85.8736518 252.249524,83.6271186 251.100368,83.6271186 C250.689956,83.6271186 250.279543,83.8767334 250.279543,84.375963 C250.279543,85.540832 251.757029,86.1232666 251.757029,88.03698 C251.757029,89.9506934 250.033295,90.7827427 245.847086,90.7827427 C239.116317,90.7827427 234.437613,90.2835131 224.259378,90.2835131 C221.796902,90.2835131 217.85694,90.9491525 217.282362,90.9491525 C216.707784,90.9491525 216.379454,90.6995378 216.461537,90.2835131 C216.461537,90.0338983 216.789867,89.7010786 217.200279,89.5346687 C230.908063,84.1263482 254.301587,90.8659476 254.301587,72.2280431 C254.301587,61.4946071 247.652902,58 232.385549,58 C212.849905,58 206.119137,65.8212635 206.119137,75.8058552 C206.119137,81.96302 209.402438,85.7072419 216.625702,85.7072419 C222.371479,85.7072419 228.856,81.2973806 228.856,72.5608629 C228.856,68.1510015 226.968102,63.8243451 220.811911,63.8243451 C216.461537,63.8243451 215.476546,65.0724191 213.506565,65.0724191 C213.096152,65.0724191 212.849905,64.9060092 212.849905,64.5731895 C212.849905,62.9090909 216.789867,61.6610169 222.453562,61.6610169 C230.415568,61.6610169 234.109283,64.0739599 234.109283,70.3975347 C234.109283,80.6317411 227.296432,85.2912173 216.543619,88.2865948 C206.447467,91.1155624 203,95.2758089 203,102.348228 C203,107.922958 206.775797,112 214.081143,112 C220.976076,112 225.408533,109.004622 225.408533,102.348228 C225.408533,93.6117103 215.312381,95.1093991 215.558629,92.8628659 C215.558629,92.3636364 216.133206,91.9476117 217.118197,91.9476117 C229.020165,91.9476117 227.050184,112 241.825041,112 Z M276.608466,112 C294.240741,112 304,100.304147 304,79.6497696 C304,66.2949309 297.849206,58 281.365079,58 C259.386243,58 254.301587,70.9400922 254.301587,85.7050691 C254.301587,104.368664 263.322751,112 276.608466,112 Z M277.090639,107.090909 C275.966919,107.090909 275.142857,106.107452 275.142857,100.206708 C275.142857,81.2751556 277.015725,58 281.136033,58 C282.484498,58 283.15873,59.5571407 283.15873,64.4744271 C283.15873,87.6676279 280.162142,107.090909 277.090639,107.090909 Z" id="20"></path>
                    <path d="M645.825041,168 C653.048305,168 656.577854,163.756549 656.577854,144.120185 C656.577854,141.873652 656.249524,139.627119 655.100368,139.627119 C654.689956,139.627119 654.279543,139.876733 654.279543,140.375963 C654.279543,141.540832 655.757029,142.123267 655.757029,144.03698 C655.757029,145.950693 654.033295,146.782743 649.847086,146.782743 C643.116317,146.782743 638.437613,146.283513 628.259378,146.283513 C625.796902,146.283513 621.85694,146.949153 621.282362,146.949153 C620.707784,146.949153 620.379454,146.699538 620.461537,146.283513 C620.461537,146.033898 620.789867,145.701079 621.200279,145.534669 C634.908063,140.126348 658.301587,146.865948 658.301587,128.228043 C658.301587,117.494607 651.652902,114 636.385549,114 C616.849905,114 610.119137,121.821263 610.119137,131.805855 C610.119137,137.96302 613.402438,141.707242 620.625702,141.707242 C626.371479,141.707242 632.856,137.297381 632.856,128.560863 C632.856,124.151002 630.968102,119.824345 624.811911,119.824345 C620.461537,119.824345 619.476546,121.072419 617.506565,121.072419 C617.096152,121.072419 616.849905,120.906009 616.849905,120.57319 C616.849905,118.909091 620.789867,117.661017 626.453562,117.661017 C634.415568,117.661017 638.109283,120.07396 638.109283,126.397535 C638.109283,136.631741 631.296432,141.291217 620.543619,144.286595 C610.447467,147.115562 607,151.275809 607,158.348228 C607,163.922958 610.775797,168 618.081143,168 C624.976076,168 629.408533,165.004622 629.408533,158.348228 C629.408533,149.61171 619.312381,151.109399 619.558629,148.862866 C619.558629,148.363636 620.133206,147.947612 621.118197,147.947612 C633.020165,147.947612 631.050184,168 645.825041,168 Z M680.608466,168 C698.240741,168 708,156.304147 708,135.64977 C708,122.294931 701.849206,114 685.365079,114 C663.386243,114 658.301587,126.940092 658.301587,141.705069 C658.301587,160.368664 667.322751,168 680.608466,168 Z M681.090639,163.090909 C679.966919,163.090909 679.142857,162.107452 679.142857,156.206708 C679.142857,137.275156 681.015725,114 685.136033,114 C686.484498,114 687.15873,115.557141 687.15873,120.474427 C687.15873,143.667628 684.162142,163.090909 681.090639,163.090909 Z" id="20"></path>
                    <path d="M645.825041,226 C653.048305,226 656.577854,221.756549 656.577854,202.120185 C656.577854,199.873652 656.249524,197.627119 655.100368,197.627119 C654.689956,197.627119 654.279543,197.876733 654.279543,198.375963 C654.279543,199.540832 655.757029,200.123267 655.757029,202.03698 C655.757029,203.950693 654.033295,204.782743 649.847086,204.782743 C643.116317,204.782743 638.437613,204.283513 628.259378,204.283513 C625.796902,204.283513 621.85694,204.949153 621.282362,204.949153 C620.707784,204.949153 620.379454,204.699538 620.461537,204.283513 C620.461537,204.033898 620.789867,203.701079 621.200279,203.534669 C634.908063,198.126348 658.301587,204.865948 658.301587,186.228043 C658.301587,175.494607 651.652902,172 636.385549,172 C616.849905,172 610.119137,179.821263 610.119137,189.805855 C610.119137,195.96302 613.402438,199.707242 620.625702,199.707242 C626.371479,199.707242 632.856,195.297381 632.856,186.560863 C632.856,182.151002 630.968102,177.824345 624.811911,177.824345 C620.461537,177.824345 619.476546,179.072419 617.506565,179.072419 C617.096152,179.072419 616.849905,178.906009 616.849905,178.57319 C616.849905,176.909091 620.789867,175.661017 626.453562,175.661017 C634.415568,175.661017 638.109283,178.07396 638.109283,184.397535 C638.109283,194.631741 631.296432,199.291217 620.543619,202.286595 C610.447467,205.115562 607,209.275809 607,216.348228 C607,221.922958 610.775797,226 618.081143,226 C624.976076,226 629.408533,223.004622 629.408533,216.348228 C629.408533,207.61171 619.312381,209.109399 619.558629,206.862866 C619.558629,206.363636 620.133206,205.947612 621.118197,205.947612 C633.020165,205.947612 631.050184,226 645.825041,226 Z M680.608466,226 C698.240741,226 708,214.304147 708,193.64977 C708,180.294931 701.849206,172 685.365079,172 C663.386243,172 658.301587,184.940092 658.301587,199.705069 C658.301587,218.368664 667.322751,226 680.608466,226 Z M681.090639,221.090909 C679.966919,221.090909 679.142857,220.107452 679.142857,214.206708 C679.142857,195.275156 681.015725,172 685.136033,172 C686.484498,172 687.15873,173.557141 687.15873,178.474427 C687.15873,201.667628 684.162142,221.090909 681.090639,221.090909 Z" id="20-copy-6"></path>
                    <path d="M241.825041,168 C249.048305,168 252.577854,163.756549 252.577854,144.120185 C252.577854,141.873652 252.249524,139.627119 251.100368,139.627119 C250.689956,139.627119 250.279543,139.876733 250.279543,140.375963 C250.279543,141.540832 251.757029,142.123267 251.757029,144.03698 C251.757029,145.950693 250.033295,146.782743 245.847086,146.782743 C239.116317,146.782743 234.437613,146.283513 224.259378,146.283513 C221.796902,146.283513 217.85694,146.949153 217.282362,146.949153 C216.707784,146.949153 216.379454,146.699538 216.461537,146.283513 C216.461537,146.033898 216.789867,145.701079 217.200279,145.534669 C230.908063,140.126348 254.301587,146.865948 254.301587,128.228043 C254.301587,117.494607 247.652902,114 232.385549,114 C212.849905,114 206.119137,121.821263 206.119137,131.805855 C206.119137,137.96302 209.402438,141.707242 216.625702,141.707242 C222.371479,141.707242 228.856,137.297381 228.856,128.560863 C228.856,124.151002 226.968102,119.824345 220.811911,119.824345 C216.461537,119.824345 215.476546,121.072419 213.506565,121.072419 C213.096152,121.072419 212.849905,120.906009 212.849905,120.57319 C212.849905,118.909091 216.789867,117.661017 222.453562,117.661017 C230.415568,117.661017 234.109283,120.07396 234.109283,126.397535 C234.109283,136.631741 227.296432,141.291217 216.543619,144.286595 C206.447467,147.115562 203,151.275809 203,158.348228 C203,163.922958 206.775797,168 214.081143,168 C220.976076,168 225.408533,165.004622 225.408533,158.348228 C225.408533,149.61171 215.312381,151.109399 215.558629,148.862866 C215.558629,148.363636 216.133206,147.947612 217.118197,147.947612 C229.020165,147.947612 227.050184,168 241.825041,168 Z M276.608466,168 C294.240741,168 304,156.304147 304,135.64977 C304,122.294931 297.849206,114 281.365079,114 C259.386243,114 254.301587,126.940092 254.301587,141.705069 C254.301587,160.368664 263.322751,168 276.608466,168 Z M277.090639,163.090909 C275.966919,163.090909 275.142857,162.107452 275.142857,156.206708 C275.142857,137.275156 277.015725,114 281.136033,114 C282.484498,114 283.15873,115.557141 283.15873,120.474427 C283.15873,143.667628 280.162142,163.090909 277.090639,163.090909 Z" id="20"></path>
                    <path d="M241.825041,226 C249.048305,226 252.577854,221.756549 252.577854,202.120185 C252.577854,199.873652 252.249524,197.627119 251.100368,197.627119 C250.689956,197.627119 250.279543,197.876733 250.279543,198.375963 C250.279543,199.540832 251.757029,200.123267 251.757029,202.03698 C251.757029,203.950693 250.033295,204.782743 245.847086,204.782743 C239.116317,204.782743 234.437613,204.283513 224.259378,204.283513 C221.796902,204.283513 217.85694,204.949153 217.282362,204.949153 C216.707784,204.949153 216.379454,204.699538 216.461537,204.283513 C216.461537,204.033898 216.789867,203.701079 217.200279,203.534669 C230.908063,198.126348 254.301587,204.865948 254.301587,186.228043 C254.301587,175.494607 247.652902,172 232.385549,172 C212.849905,172 206.119137,179.821263 206.119137,189.805855 C206.119137,195.96302 209.402438,199.707242 216.625702,199.707242 C222.371479,199.707242 228.856,195.297381 228.856,186.560863 C228.856,182.151002 226.968102,177.824345 220.811911,177.824345 C216.461537,177.824345 215.476546,179.072419 213.506565,179.072419 C213.096152,179.072419 212.849905,178.906009 212.849905,178.57319 C212.849905,176.909091 216.789867,175.661017 222.453562,175.661017 C230.415568,175.661017 234.109283,178.07396 234.109283,184.397535 C234.109283,194.631741 227.296432,199.291217 216.543619,202.286595 C206.447467,205.115562 203,209.275809 203,216.348228 C203,221.922958 206.775797,226 214.081143,226 C220.976076,226 225.408533,223.004622 225.408533,216.348228 C225.408533,207.61171 215.312381,209.109399 215.558629,206.862866 C215.558629,206.363636 216.133206,205.947612 217.118197,205.947612 C229.020165,205.947612 227.050184,226 241.825041,226 Z M276.608466,226 C294.240741,226 304,214.304147 304,193.64977 C304,180.294931 297.849206,172 281.365079,172 C259.386243,172 254.301587,184.940092 254.301587,199.705069 C254.301587,218.368664 263.322751,226 276.608466,226 Z M277.090639,221.090909 C275.966919,221.090909 275.142857,220.107452 275.142857,214.206708 C275.142857,195.275156 277.015725,172 281.136033,172 C282.484498,172 283.15873,173.557141 283.15873,178.474427 C283.15873,201.667628 280.162142,221.090909 277.090639,221.090909 Z" id="20-copy-7"></path>
                    <path d="M746.825041,112 C754.048305,112 757.577854,107.756549 757.577854,88.1201849 C757.577854,85.8736518 757.249524,83.6271186 756.100368,83.6271186 C755.689956,83.6271186 755.279543,83.8767334 755.279543,84.375963 C755.279543,85.540832 756.757029,86.1232666 756.757029,88.03698 C756.757029,89.9506934 755.033295,90.7827427 750.847086,90.7827427 C744.116317,90.7827427 739.437613,90.2835131 729.259378,90.2835131 C726.796902,90.2835131 722.85694,90.9491525 722.282362,90.9491525 C721.707784,90.9491525 721.379454,90.6995378 721.461537,90.2835131 C721.461537,90.0338983 721.789867,89.7010786 722.200279,89.5346687 C735.908063,84.1263482 759.301587,90.8659476 759.301587,72.2280431 C759.301587,61.4946071 752.652902,58 737.385549,58 C717.849905,58 711.119137,65.8212635 711.119137,75.8058552 C711.119137,81.96302 714.402438,85.7072419 721.625702,85.7072419 C727.371479,85.7072419 733.856,81.2973806 733.856,72.5608629 C733.856,68.1510015 731.968102,63.8243451 725.811911,63.8243451 C721.461537,63.8243451 720.476546,65.0724191 718.506565,65.0724191 C718.096152,65.0724191 717.849905,64.9060092 717.849905,64.5731895 C717.849905,62.9090909 721.789867,61.6610169 727.453562,61.6610169 C735.415568,61.6610169 739.109283,64.0739599 739.109283,70.3975347 C739.109283,80.6317411 732.296432,85.2912173 721.543619,88.2865948 C711.447467,91.1155624 708,95.2758089 708,102.348228 C708,107.922958 711.775797,112 719.081143,112 C725.976076,112 730.408533,109.004622 730.408533,102.348228 C730.408533,93.6117103 720.312381,95.1093991 720.558629,92.8628659 C720.558629,92.3636364 721.133206,91.9476117 722.118197,91.9476117 C734.020165,91.9476117 732.050184,112 746.825041,112 Z M781.608466,112 C799.240741,112 809,100.304147 809,79.6497696 C809,66.2949309 802.849206,58 786.365079,58 C764.386243,58 759.301587,70.9400922 759.301587,85.7050691 C759.301587,104.368664 768.322751,112 781.608466,112 Z M782.090639,107.090909 C780.966919,107.090909 780.142857,106.107452 780.142857,100.206708 C780.142857,81.2751556 782.015725,58 786.136033,58 C787.484498,58 788.15873,59.5571407 788.15873,64.4744271 C788.15873,87.6676279 785.162142,107.090909 782.090639,107.090909 Z" id="20"></path>
                    <path d="M746.825041,54 C754.048305,54 757.577854,49.7565485 757.577854,30.1201849 C757.577854,27.8736518 757.249524,25.6271186 756.100368,25.6271186 C755.689956,25.6271186 755.279543,25.8767334 755.279543,26.375963 C755.279543,27.540832 756.757029,28.1232666 756.757029,30.03698 C756.757029,31.9506934 755.033295,32.7827427 750.847086,32.7827427 C744.116317,32.7827427 739.437613,32.2835131 729.259378,32.2835131 C726.796902,32.2835131 722.85694,32.9491525 722.282362,32.9491525 C721.707784,32.9491525 721.379454,32.6995378 721.461537,32.2835131 C721.461537,32.0338983 721.789867,31.7010786 722.200279,31.5346687 C735.908063,26.1263482 759.301587,32.8659476 759.301587,14.2280431 C759.301587,3.49460709 752.652902,2.13162821e-14 737.385549,2.13162821e-14 C717.849905,2.13162821e-14 711.119137,7.82126348 711.119137,17.8058552 C711.119137,23.96302 714.402438,27.7072419 721.625702,27.7072419 C727.371479,27.7072419 733.856,23.2973806 733.856,14.5608629 C733.856,10.1510015 731.968102,5.82434515 725.811911,5.82434515 C721.461537,5.82434515 720.476546,7.07241911 718.506565,7.07241911 C718.096152,7.07241911 717.849905,6.90600924 717.849905,6.57318952 C717.849905,4.90909091 721.789867,3.66101695 727.453562,3.66101695 C735.415568,3.66101695 739.109283,6.07395994 739.109283,12.3975347 C739.109283,22.6317411 732.296432,27.2912173 721.543619,30.2865948 C711.447467,33.1155624 708,37.2758089 708,44.348228 C708,49.9229584 711.775797,54 719.081143,54 C725.976076,54 730.408533,51.0046225 730.408533,44.348228 C730.408533,35.6117103 720.312381,37.1093991 720.558629,34.8628659 C720.558629,34.3636364 721.133206,33.9476117 722.118197,33.9476117 C734.020165,33.9476117 732.050184,54 746.825041,54 Z M781.608466,54 C799.240741,54 809,42.3041475 809,21.6497696 C809,8.29493088 802.849206,2.13162821e-14 786.365079,2.13162821e-14 C764.386243,2.13162821e-14 759.301587,12.9400922 759.301587,27.7050691 C759.301587,46.3686636 768.322751,54 781.608466,54 Z M782.090639,49.0909091 C780.966919,49.0909091 780.142857,48.1074518 780.142857,42.2067081 C780.142857,23.2751556 782.015725,2.13162821e-14 786.136033,2.13162821e-14 C787.484498,2.13162821e-14 788.15873,1.55714069 788.15873,6.47442708 C788.15873,29.6676279 785.162142,49.0909091 782.090639,49.0909091 Z" id="20-copy"></path>
                    <path d="M341.825041,54 C349.048305,54 352.577854,49.7565485 352.577854,30.1201849 C352.577854,27.8736518 352.249524,25.6271186 351.100368,25.6271186 C350.689956,25.6271186 350.279543,25.8767334 350.279543,26.375963 C350.279543,27.540832 351.757029,28.1232666 351.757029,30.03698 C351.757029,31.9506934 350.033295,32.7827427 345.847086,32.7827427 C339.116317,32.7827427 334.437613,32.2835131 324.259378,32.2835131 C321.796902,32.2835131 317.85694,32.9491525 317.282362,32.9491525 C316.707784,32.9491525 316.379454,32.6995378 316.461537,32.2835131 C316.461537,32.0338983 316.789867,31.7010786 317.200279,31.5346687 C330.908063,26.1263482 354.301587,32.8659476 354.301587,14.2280431 C354.301587,3.49460709 347.652902,0 332.385549,0 C312.849905,0 306.119137,7.82126348 306.119137,17.8058552 C306.119137,23.96302 309.402438,27.7072419 316.625702,27.7072419 C322.371479,27.7072419 328.856,23.2973806 328.856,14.5608629 C328.856,10.1510015 326.968102,5.82434515 320.811911,5.82434515 C316.461537,5.82434515 315.476546,7.07241911 313.506565,7.07241911 C313.096152,7.07241911 312.849905,6.90600924 312.849905,6.57318952 C312.849905,4.90909091 316.789867,3.66101695 322.453562,3.66101695 C330.415568,3.66101695 334.109283,6.07395994 334.109283,12.3975347 C334.109283,22.6317411 327.296432,27.2912173 316.543619,30.2865948 C306.447467,33.1155624 303,37.2758089 303,44.348228 C303,49.9229584 306.775797,54 314.081143,54 C320.976076,54 325.408533,51.0046225 325.408533,44.348228 C325.408533,35.6117103 315.312381,37.1093991 315.558629,34.8628659 C315.558629,34.3636364 316.133206,33.9476117 317.118197,33.9476117 C329.020165,33.9476117 327.050184,54 341.825041,54 Z M376.608466,54 C394.240741,54 404,42.3041475 404,21.6497696 C404,8.29493088 397.849206,0 381.365079,0 C359.386243,0 354.301587,12.9400922 354.301587,27.7050691 C354.301587,46.3686636 363.322751,54 376.608466,54 Z M377.090639,49.0909091 C375.966919,49.0909091 375.142857,48.1074518 375.142857,42.2067081 C375.142857,23.2751556 377.015725,0 381.136033,0 C382.484498,0 383.15873,1.55714069 383.15873,6.47442708 C383.15873,29.6676279 380.162142,49.0909091 377.090639,49.0909091 Z" id="20"></path>
                    <path d="M341.825041,112 C349.048305,112 352.577854,107.756549 352.577854,88.1201849 C352.577854,85.8736518 352.249524,83.6271186 351.100368,83.6271186 C350.689956,83.6271186 350.279543,83.8767334 350.279543,84.375963 C350.279543,85.540832 351.757029,86.1232666 351.757029,88.03698 C351.757029,89.9506934 350.033295,90.7827427 345.847086,90.7827427 C339.116317,90.7827427 334.437613,90.2835131 324.259378,90.2835131 C321.796902,90.2835131 317.85694,90.9491525 317.282362,90.9491525 C316.707784,90.9491525 316.379454,90.6995378 316.461537,90.2835131 C316.461537,90.0338983 316.789867,89.7010786 317.200279,89.5346687 C330.908063,84.1263482 354.301587,90.8659476 354.301587,72.2280431 C354.301587,61.4946071 347.652902,58 332.385549,58 C312.849905,58 306.119137,65.8212635 306.119137,75.8058552 C306.119137,81.96302 309.402438,85.7072419 316.625702,85.7072419 C322.371479,85.7072419 328.856,81.2973806 328.856,72.5608629 C328.856,68.1510015 326.968102,63.8243451 320.811911,63.8243451 C316.461537,63.8243451 315.476546,65.0724191 313.506565,65.0724191 C313.096152,65.0724191 312.849905,64.9060092 312.849905,64.5731895 C312.849905,62.9090909 316.789867,61.6610169 322.453562,61.6610169 C330.415568,61.6610169 334.109283,64.0739599 334.109283,70.3975347 C334.109283,80.6317411 327.296432,85.2912173 316.543619,88.2865948 C306.447467,91.1155624 303,95.2758089 303,102.348228 C303,107.922958 306.775797,112 314.081143,112 C320.976076,112 325.408533,109.004622 325.408533,102.348228 C325.408533,93.6117103 315.312381,95.1093991 315.558629,92.8628659 C315.558629,92.3636364 316.133206,91.9476117 317.118197,91.9476117 C329.020165,91.9476117 327.050184,112 341.825041,112 Z M376.608466,112 C394.240741,112 404,100.304147 404,79.6497696 C404,66.2949309 397.849206,58 381.365079,58 C359.386243,58 354.301587,70.9400922 354.301587,85.7050691 C354.301587,104.368664 363.322751,112 376.608466,112 Z M377.090639,107.090909 C375.966919,107.090909 375.142857,106.107452 375.142857,100.206708 C375.142857,81.2751556 377.015725,58 381.136033,58 C382.484498,58 383.15873,59.5571407 383.15873,64.4744271 C383.15873,87.6676279 380.162142,107.090909 377.090639,107.090909 Z" id="20"></path>
                    <path d="M746.825041,168 C754.048305,168 757.577854,163.756549 757.577854,144.120185 C757.577854,141.873652 757.249524,139.627119 756.100368,139.627119 C755.689956,139.627119 755.279543,139.876733 755.279543,140.375963 C755.279543,141.540832 756.757029,142.123267 756.757029,144.03698 C756.757029,145.950693 755.033295,146.782743 750.847086,146.782743 C744.116317,146.782743 739.437613,146.283513 729.259378,146.283513 C726.796902,146.283513 722.85694,146.949153 722.282362,146.949153 C721.707784,146.949153 721.379454,146.699538 721.461537,146.283513 C721.461537,146.033898 721.789867,145.701079 722.200279,145.534669 C735.908063,140.126348 759.301587,146.865948 759.301587,128.228043 C759.301587,117.494607 752.652902,114 737.385549,114 C717.849905,114 711.119137,121.821263 711.119137,131.805855 C711.119137,137.96302 714.402438,141.707242 721.625702,141.707242 C727.371479,141.707242 733.856,137.297381 733.856,128.560863 C733.856,124.151002 731.968102,119.824345 725.811911,119.824345 C721.461537,119.824345 720.476546,121.072419 718.506565,121.072419 C718.096152,121.072419 717.849905,120.906009 717.849905,120.57319 C717.849905,118.909091 721.789867,117.661017 727.453562,117.661017 C735.415568,117.661017 739.109283,120.07396 739.109283,126.397535 C739.109283,136.631741 732.296432,141.291217 721.543619,144.286595 C711.447467,147.115562 708,151.275809 708,158.348228 C708,163.922958 711.775797,168 719.081143,168 C725.976076,168 730.408533,165.004622 730.408533,158.348228 C730.408533,149.61171 720.312381,151.109399 720.558629,148.862866 C720.558629,148.363636 721.133206,147.947612 722.118197,147.947612 C734.020165,147.947612 732.050184,168 746.825041,168 Z M781.608466,168 C799.240741,168 809,156.304147 809,135.64977 C809,122.294931 802.849206,114 786.365079,114 C764.386243,114 759.301587,126.940092 759.301587,141.705069 C759.301587,160.368664 768.322751,168 781.608466,168 Z M782.090639,163.090909 C780.966919,163.090909 780.142857,162.107452 780.142857,156.206708 C780.142857,137.275156 782.015725,114 786.136033,114 C787.484498,114 788.15873,115.557141 788.15873,120.474427 C788.15873,143.667628 785.162142,163.090909 782.090639,163.090909 Z" id="20"></path>
                    <path d="M746.825041,226 C754.048305,226 757.577854,221.756549 757.577854,202.120185 C757.577854,199.873652 757.249524,197.627119 756.100368,197.627119 C755.689956,197.627119 755.279543,197.876733 755.279543,198.375963 C755.279543,199.540832 756.757029,200.123267 756.757029,202.03698 C756.757029,203.950693 755.033295,204.782743 750.847086,204.782743 C744.116317,204.782743 739.437613,204.283513 729.259378,204.283513 C726.796902,204.283513 722.85694,204.949153 722.282362,204.949153 C721.707784,204.949153 721.379454,204.699538 721.461537,204.283513 C721.461537,204.033898 721.789867,203.701079 722.200279,203.534669 C735.908063,198.126348 759.301587,204.865948 759.301587,186.228043 C759.301587,175.494607 752.652902,172 737.385549,172 C717.849905,172 711.119137,179.821263 711.119137,189.805855 C711.119137,195.96302 714.402438,199.707242 721.625702,199.707242 C727.371479,199.707242 733.856,195.297381 733.856,186.560863 C733.856,182.151002 731.968102,177.824345 725.811911,177.824345 C721.461537,177.824345 720.476546,179.072419 718.506565,179.072419 C718.096152,179.072419 717.849905,178.906009 717.849905,178.57319 C717.849905,176.909091 721.789867,175.661017 727.453562,175.661017 C735.415568,175.661017 739.109283,178.07396 739.109283,184.397535 C739.109283,194.631741 732.296432,199.291217 721.543619,202.286595 C711.447467,205.115562 708,209.275809 708,216.348228 C708,221.922958 711.775797,226 719.081143,226 C725.976076,226 730.408533,223.004622 730.408533,216.348228 C730.408533,207.61171 720.312381,209.109399 720.558629,206.862866 C720.558629,206.363636 721.133206,205.947612 722.118197,205.947612 C734.020165,205.947612 732.050184,226 746.825041,226 Z M781.608466,226 C799.240741,226 809,214.304147 809,193.64977 C809,180.294931 802.849206,172 786.365079,172 C764.386243,172 759.301587,184.940092 759.301587,199.705069 C759.301587,218.368664 768.322751,226 781.608466,226 Z M782.090639,221.090909 C780.966919,221.090909 780.142857,220.107452 780.142857,214.206708 C780.142857,195.275156 782.015725,172 786.136033,172 C787.484498,172 788.15873,173.557141 788.15873,178.474427 C788.15873,201.667628 785.162142,221.090909 782.090639,221.090909 Z" id="20-copy-8"></path>
                    <path d="M341.825041,168 C349.048305,168 352.577854,163.756549 352.577854,144.120185 C352.577854,141.873652 352.249524,139.627119 351.100368,139.627119 C350.689956,139.627119 350.279543,139.876733 350.279543,140.375963 C350.279543,141.540832 351.757029,142.123267 351.757029,144.03698 C351.757029,145.950693 350.033295,146.782743 345.847086,146.782743 C339.116317,146.782743 334.437613,146.283513 324.259378,146.283513 C321.796902,146.283513 317.85694,146.949153 317.282362,146.949153 C316.707784,146.949153 316.379454,146.699538 316.461537,146.283513 C316.461537,146.033898 316.789867,145.701079 317.200279,145.534669 C330.908063,140.126348 354.301587,146.865948 354.301587,128.228043 C354.301587,117.494607 347.652902,114 332.385549,114 C312.849905,114 306.119137,121.821263 306.119137,131.805855 C306.119137,137.96302 309.402438,141.707242 316.625702,141.707242 C322.371479,141.707242 328.856,137.297381 328.856,128.560863 C328.856,124.151002 326.968102,119.824345 320.811911,119.824345 C316.461537,119.824345 315.476546,121.072419 313.506565,121.072419 C313.096152,121.072419 312.849905,120.906009 312.849905,120.57319 C312.849905,118.909091 316.789867,117.661017 322.453562,117.661017 C330.415568,117.661017 334.109283,120.07396 334.109283,126.397535 C334.109283,136.631741 327.296432,141.291217 316.543619,144.286595 C306.447467,147.115562 303,151.275809 303,158.348228 C303,163.922958 306.775797,168 314.081143,168 C320.976076,168 325.408533,165.004622 325.408533,158.348228 C325.408533,149.61171 315.312381,151.109399 315.558629,148.862866 C315.558629,148.363636 316.133206,147.947612 317.118197,147.947612 C329.020165,147.947612 327.050184,168 341.825041,168 Z M376.608466,168 C394.240741,168 404,156.304147 404,135.64977 C404,122.294931 397.849206,114 381.365079,114 C359.386243,114 354.301587,126.940092 354.301587,141.705069 C354.301587,160.368664 363.322751,168 376.608466,168 Z M377.090639,163.090909 C375.966919,163.090909 375.142857,162.107452 375.142857,156.206708 C375.142857,137.275156 377.015725,114 381.136033,114 C382.484498,114 383.15873,115.557141 383.15873,120.474427 C383.15873,143.667628 380.162142,163.090909 377.090639,163.090909 Z" id="20"></path>
                    <path d="M341.825041,226 C349.048305,226 352.577854,221.756549 352.577854,202.120185 C352.577854,199.873652 352.249524,197.627119 351.100368,197.627119 C350.689956,197.627119 350.279543,197.876733 350.279543,198.375963 C350.279543,199.540832 351.757029,200.123267 351.757029,202.03698 C351.757029,203.950693 350.033295,204.782743 345.847086,204.782743 C339.116317,204.782743 334.437613,204.283513 324.259378,204.283513 C321.796902,204.283513 317.85694,204.949153 317.282362,204.949153 C316.707784,204.949153 316.379454,204.699538 316.461537,204.283513 C316.461537,204.033898 316.789867,203.701079 317.200279,203.534669 C330.908063,198.126348 354.301587,204.865948 354.301587,186.228043 C354.301587,175.494607 347.652902,172 332.385549,172 C312.849905,172 306.119137,179.821263 306.119137,189.805855 C306.119137,195.96302 309.402438,199.707242 316.625702,199.707242 C322.371479,199.707242 328.856,195.297381 328.856,186.560863 C328.856,182.151002 326.968102,177.824345 320.811911,177.824345 C316.461537,177.824345 315.476546,179.072419 313.506565,179.072419 C313.096152,179.072419 312.849905,178.906009 312.849905,178.57319 C312.849905,176.909091 316.789867,175.661017 322.453562,175.661017 C330.415568,175.661017 334.109283,178.07396 334.109283,184.397535 C334.109283,194.631741 327.296432,199.291217 316.543619,202.286595 C306.447467,205.115562 303,209.275809 303,216.348228 C303,221.922958 306.775797,226 314.081143,226 C320.976076,226 325.408533,223.004622 325.408533,216.348228 C325.408533,207.61171 315.312381,209.109399 315.558629,206.862866 C315.558629,206.363636 316.133206,205.947612 317.118197,205.947612 C329.020165,205.947612 327.050184,226 341.825041,226 Z M376.608466,226 C394.240741,226 404,214.304147 404,193.64977 C404,180.294931 397.849206,172 381.365079,172 C359.386243,172 354.301587,184.940092 354.301587,199.705069 C354.301587,218.368664 363.322751,226 376.608466,226 Z M377.090639,221.090909 C375.966919,221.090909 375.142857,220.107452 375.142857,214.206708 C375.142857,195.275156 377.015725,172 381.136033,172 C382.484498,172 383.15873,173.557141 383.15873,178.474427 C383.15873,201.667628 380.162142,221.090909 377.090639,221.090909 Z" id="20-copy-9"></path>
                </g>
            </g>
        </g>
    </g>
</svg>